<svg width="30" height="30" viewBox="0 0 30 30" fill="none" xmlns="http://www.w3.org/2000/svg">
<circle cx="15" cy="15" r="15" fill="#6448B6"/>
<path d="M15.3333 7C12.3926 7 10 9.39259 10 12.3333C10 13.2162 10.2207 14.0915 10.6403 14.8678L15.0417 22.8281C15.1003 22.9342 15.2119 23 15.3333 23C15.4548 23 15.5664 22.9342 15.625 22.8281L20.028 14.8652C20.446 14.0915 20.6667 13.2161 20.6667 12.3333C20.6667 9.39259 18.2741 7 15.3333 7ZM15.3333 15C13.863 15 12.6667 13.8037 12.6667 12.3333C12.6667 10.863 13.863 9.66669 15.3333 9.66669C16.8037 9.66669 18 10.863 18 12.3333C18 13.8037 16.8037 15 15.3333 15Z" fill="white"/>
</svg>
