<svg width="141" height="141" viewBox="0 0 141 141" fill="none" xmlns="http://www.w3.org/2000/svg">
<circle cx="70.5" cy="70.5" r="70.5" fill="white"/>
<path d="M104.594 36.2344H40.5312C38.3737 36.2344 36.625 37.983 36.625 40.1406V115.141C36.625 117.298 38.3737 119.047 40.5312 119.047H104.594C106.751 119.047 108.5 117.298 108.5 115.141V40.1406C108.5 37.983 106.751 36.2344 104.594 36.2344Z" fill="white"/>
<path d="M62.6016 51.8594H99.125V72.1719H62.6016V51.8594Z" fill="#7D346D"/>
<path d="M119.047 37.4062C119.047 45.3881 112.576 51.8594 104.594 51.8594C96.6119 51.8594 90.1406 45.3881 90.1406 37.4062C90.1406 29.4244 96.6119 22.9531 104.594 22.9531C112.576 22.9531 119.047 29.4244 119.047 37.4062Z" fill="white"/>
<path d="M109.574 23.8342C104.046 25.8636 100.102 31.1745 100.102 37.4062C100.102 43.6378 104.046 48.9487 109.574 50.9781C115.102 48.9487 119.047 43.6378 119.047 37.4062C119.047 31.1745 115.102 25.8636 109.574 23.8342Z" fill="#54C991"/>
<path d="M56.3516 82.3281H67.83V102.641H56.3516V82.3281Z" fill="#7D346D"/>
<path d="M30.8884 85.119V119.047H36.625V102.641L49.1967 92.8674C50.7172 91.6849 51.4344 89.7417 51.0453 87.8549C50.4372 84.9054 47.4023 83.1384 44.5374 84.0654L36.625 86.6251V76.4124L30.8884 85.119Z" fill="#FFBF36"/>
<path d="M104.594 21C95.5476 21 88.1875 28.3601 88.1875 37.4062C88.1875 46.4524 95.5476 53.8125 104.594 53.8125C113.64 53.8125 121 46.4524 121 37.4062C121 28.3601 113.64 21 104.594 21ZM104.594 49.9062C97.7014 49.9062 92.0938 44.2986 92.0938 37.4062C92.0938 30.5139 97.7014 24.9062 104.594 24.9062C111.486 24.9062 117.094 30.5139 117.094 37.4062C117.094 44.2986 111.486 49.9062 104.594 49.9062Z" fill="black"/>
<path d="M79.9706 50.4785C79.6075 50.8416 79.3984 51.3459 79.3984 51.8594C79.3984 52.3728 79.6075 52.8771 79.9706 53.2403C80.3338 53.6035 80.8381 53.8125 81.3516 53.8125C81.865 53.8125 82.3693 53.6035 82.7325 53.2403C83.0956 52.8771 83.3047 52.3728 83.3047 51.8594C83.3047 51.3459 83.0956 50.8416 82.7325 50.4785C82.3693 50.1153 81.865 49.9062 81.3516 49.9062C80.8381 49.9062 80.3338 50.1153 79.9706 50.4785Z" fill="black"/>
<path d="M101.078 61.4625C101.078 60.3837 100.204 59.5094 99.125 59.5094C98.0462 59.5094 97.1719 60.3837 97.1719 61.4625V70.2188H47.9531V53.8125H71C72.0788 53.8125 72.9531 52.9382 72.9531 51.8594C72.9531 50.7806 72.0788 49.9062 71 49.9062H46C44.9212 49.9062 44.0469 50.7806 44.0469 51.8594V72.1719C44.0469 73.2507 44.9212 74.125 46 74.125H99.125C100.204 74.125 101.078 73.2507 101.078 72.1719V61.4625Z" fill="black"/>
<path d="M99.125 90.5312H77.295C76.217 90.5312 75.3419 91.4056 75.3419 92.4844C75.3419 93.5632 76.217 94.4375 77.295 94.4375H99.125C100.204 94.4375 101.078 93.5632 101.078 92.4844C101.078 91.4056 100.204 90.5312 99.125 90.5312Z" fill="black"/>
<path d="M99.125 80.375H77.295C76.217 80.375 75.3419 81.2493 75.3419 82.3281C75.3419 83.4069 76.217 84.2812 77.295 84.2812H99.125C100.204 84.2812 101.078 83.4069 101.078 82.3281C101.078 81.2493 100.204 80.375 99.125 80.375Z" fill="black"/>
<path d="M99.125 100.688H77.295C76.217 100.688 75.3419 101.562 75.3419 102.641C75.3419 103.719 76.217 104.594 77.295 104.594H99.125C100.204 104.594 101.078 103.719 101.078 102.641C101.078 101.562 100.204 100.688 99.125 100.688Z" fill="black"/>
<path d="M46 100.688C44.9212 100.688 44.0469 101.562 44.0469 102.641C44.0469 103.719 44.9212 104.594 46 104.594H67.83C68.908 104.594 69.7831 103.719 69.7831 102.641V82.3281C69.7831 81.2493 68.908 80.375 67.83 80.375H56.9146C55.8358 80.375 54.9615 81.2493 54.9615 82.3281C54.9615 83.4069 55.8358 84.2812 56.9146 84.2812H65.8769V100.688H46Z" fill="black"/>
<path d="M108.5 60.3555C107.421 60.3555 106.547 61.2298 106.547 62.3086V79.1657C106.547 80.2438 107.421 81.1189 108.5 81.1189C109.579 81.1189 110.453 80.2438 110.453 79.1657V62.3086C110.453 61.2298 109.579 60.3555 108.5 60.3555Z" fill="black"/>
<path d="M108.5 85.0625C107.987 85.0625 107.482 85.2715 107.119 85.6347C106.756 85.9979 106.547 86.5022 106.547 87.0156C106.547 87.5291 106.756 88.0334 107.119 88.3965C107.482 88.7597 107.987 88.9688 108.5 88.9688C109.013 88.9688 109.518 88.7597 109.881 88.3965C110.244 88.0334 110.453 87.5291 110.453 87.0156C110.453 86.5022 110.244 85.9979 109.881 85.6347C109.518 85.2715 109.013 85.0625 108.5 85.0625Z" fill="black"/>
<path d="M108.5 93.7905C107.421 93.7905 106.547 94.6656 106.547 95.7436V115.141C106.547 116.218 105.671 117.094 104.594 117.094H40.5312C39.4539 117.094 38.5781 116.218 38.5781 115.141V103.597L50.3952 94.4092C52.5192 92.7582 53.5011 90.0956 52.9579 87.4611C52.5566 85.5118 51.3397 83.8196 49.6201 82.8187C47.9012 81.8177 45.829 81.5941 43.9362 82.2068L36.0237 84.7664C34.9976 85.0983 34.4345 86.2 34.7664 87.2262C35.0983 88.2523 36.2 88.8154 37.2261 88.4835L45.1386 85.9238C45.9885 85.6484 46.8826 85.7445 47.6547 86.1947C48.4276 86.644 48.9517 87.3742 49.1326 88.2493C49.3729 89.4158 48.938 90.5945 47.9981 91.3254L35.4263 101.099C34.9503 101.469 34.6718 102.038 34.6718 102.641V115.753C34.6718 115.91 34.6909 115.958 34.726 115.928C35.1128 118.788 37.5672 121 40.5312 121H104.594C107.825 121 110.453 118.372 110.453 115.141V95.7436C110.453 94.6656 109.579 93.7905 108.5 93.7905Z" fill="black"/>
<path d="M34.6719 79.1657C34.6719 80.2438 35.5462 81.1189 36.625 81.1189C37.7038 81.1189 38.5781 80.2438 38.5781 79.1657V40.1406C38.5781 39.0634 39.454 38.1875 40.5312 38.1875H80.4398C81.5186 38.1875 82.393 37.3132 82.393 36.2344C82.393 35.1556 81.5186 34.2812 80.4398 34.2812H40.5312C37.3002 34.2812 34.6719 36.9096 34.6719 40.1406V64.0344L21.322 84.2957C21.1122 84.6147 21 84.9877 21 85.37V119.047C21 120.126 21.8743 121 22.9531 121C24.0319 121 24.9062 120.126 24.9062 119.047V85.9559L34.6719 71.1343V79.1657Z" fill="black"/>
<path d="M109.234 32.8698L104.203 37.9006L102.378 36.0756C101.616 35.3127 100.379 35.3127 99.6164 36.0756C98.8535 36.8386 98.8535 38.0753 99.6164 38.8375L102.822 42.0434C103.204 42.4248 103.703 42.6156 104.203 42.6156C104.703 42.6156 105.203 42.4248 105.584 42.0434L111.996 35.6316C112.759 34.8694 112.759 33.6327 111.996 32.8698C111.233 32.1076 109.996 32.1068 109.234 32.8698Z" fill="black"/>
</svg>
