<svg width="141" height="141" viewBox="0 0 141 141" fill="none" xmlns="http://www.w3.org/2000/svg">
<circle cx="70.5" cy="70.5" r="70.5" fill="white"/>
<path d="M94.9151 35.4531H50.0146C48.121 35.4531 46.5859 36.9882 46.5859 38.8818V115.618C46.5859 117.512 48.121 119.047 50.0146 119.047H94.9151C96.8087 119.047 98.3438 117.512 98.3438 115.618V38.8818C98.3438 36.9882 96.8087 35.4531 94.9151 35.4531Z" fill="#FFBF36"/>
<path d="M60.8438 22.9531H106.938C109.095 22.9531 110.844 24.7018 110.844 26.8594V102.641C110.844 104.798 109.095 106.547 106.938 106.547H47.5625C45.4049 106.547 43.6562 104.798 43.6562 102.641V40.1406L60.8438 22.9531Z" fill="white"/>
<path d="M69.7305 35.4531H98.3438V49.5156H69.7305V35.4531Z" fill="#7D346D"/>
<path d="M43.6562 40.1406H55.4727C58.439 40.1406 60.8438 37.7358 60.8438 34.7695V22.9531L43.6562 40.1406Z" fill="#FFBF36"/>
<path d="M87.6016 63.5781H98.3438V77.6406H87.6016V63.5781Z" fill="#54C991"/>
<path d="M106.938 21H60.8438C60.8445 21.0015 60.8453 21.0031 60.846 21.0046C60.3372 21.0046 59.8367 21.1984 59.4628 21.5722L42.2753 38.7597C41.9015 39.1335 41.7077 39.6333 41.7077 40.1414C41.7062 40.1414 41.7047 40.1414 41.7031 40.1406V102.641C41.7031 105.872 44.3315 108.5 47.5625 108.5H106.938C110.169 108.5 112.797 105.872 112.797 102.641V26.8594C112.797 23.6283 110.169 21 106.938 21ZM58.8906 27.6689V34.7695C58.8906 36.654 57.3571 38.1875 55.4727 38.1875H48.3712L58.8906 27.6689ZM108.891 102.641C108.891 103.718 108.015 104.594 106.938 104.594H47.5625C46.4852 104.594 45.6094 103.718 45.6094 102.641V42.0938H55.4727C59.5117 42.0938 62.7969 38.8085 62.7969 34.7695V24.9062H106.938C108.015 24.9062 108.891 25.7821 108.891 26.8594V102.641Z" fill="black"/>
<path d="M43.3587 117.094H41.4056C40.3268 117.094 39.4525 117.968 39.4525 119.047C39.4525 120.126 40.3268 121 41.4056 121H43.3587C44.4367 121 45.3118 120.126 45.3118 119.047C45.3118 117.968 44.4367 117.094 43.3587 117.094Z" fill="black"/>
<path d="M31.1562 102.232C32.235 102.232 33.1094 101.357 33.1094 100.279V98.3254C33.1094 97.2466 32.235 96.3723 31.1562 96.3723C30.0775 96.3723 29.2031 97.2466 29.2031 98.3254V100.279C29.2031 101.357 30.0775 102.232 31.1562 102.232Z" fill="black"/>
<path d="M33.1094 110.044V108.091C33.1094 107.012 32.235 106.138 31.1562 106.138C30.0775 106.138 29.2031 107.012 29.2031 108.091V110.044C29.2031 111.122 30.0775 111.997 31.1562 111.997C32.235 111.997 33.1094 111.123 33.1094 110.044Z" fill="black"/>
<path d="M53.1243 117.094H51.1712C50.0924 117.094 49.2181 117.968 49.2181 119.047C49.2181 120.126 50.0924 121 51.1712 121H53.1243C54.2024 121 55.0775 120.126 55.0775 119.047C55.0775 117.968 54.2024 117.094 53.1243 117.094Z" fill="black"/>
<path d="M34.3453 116.959C34.0432 116.839 33.7716 116.643 33.5618 116.391C32.8706 115.563 31.6384 115.452 30.8106 116.142C29.9821 116.834 29.8715 118.066 30.5627 118.894C31.1898 119.645 32.0008 120.233 32.9095 120.591C33.1452 120.685 33.3878 120.728 33.6266 120.728C34.4048 120.728 35.1403 120.261 35.4432 119.493C35.8407 118.49 35.3486 117.356 34.3453 116.959Z" fill="black"/>
<path d="M31.1562 53.4036C32.235 53.4036 33.1094 52.5285 33.1094 51.4504V49.4973C33.1094 48.4185 32.235 47.5442 31.1562 47.5442C30.0775 47.5442 29.2031 48.4185 29.2031 49.4973V51.4504C29.2031 52.5292 30.0775 53.4036 31.1562 53.4036Z" fill="black"/>
<path d="M31.1562 43.6379C32.235 43.6379 33.1094 42.7628 33.1094 41.6848V39.7317C33.1094 38.6529 32.235 37.7786 31.1562 37.7786C30.0775 37.7786 29.2031 38.6529 29.2031 39.7317V41.6848C29.2031 42.7636 30.0775 43.6379 31.1562 43.6379Z" fill="black"/>
<path d="M31.1562 63.1692C32.235 63.1692 33.1094 62.2941 33.1094 61.2161V59.2629C33.1094 58.1841 32.235 57.3098 31.1562 57.3098C30.0775 57.3098 29.2031 58.1841 29.2031 59.2629V61.2161C29.2031 62.2949 30.0775 63.1692 31.1562 63.1692Z" fill="black"/>
<path d="M31.1562 92.4661C32.235 92.4661 33.1094 91.591 33.1094 90.5129V88.5598C33.1094 87.481 32.235 86.6067 31.1562 86.6067C30.0775 86.6067 29.2031 87.481 29.2031 88.5598V90.5129C29.2031 91.5917 30.0775 92.4661 31.1562 92.4661Z" fill="black"/>
<path d="M31.1562 72.9348C32.235 72.9348 33.1094 72.0597 33.1094 70.9817V69.0286C33.1094 67.9498 32.235 67.0754 31.1562 67.0754C30.0775 67.0754 29.2031 67.9498 29.2031 69.0286V70.9817C29.2031 72.0605 30.0775 72.9348 31.1562 72.9348Z" fill="black"/>
<path d="M31.1562 82.7004C32.235 82.7004 33.1094 81.8253 33.1094 80.7473V78.7942C33.1094 77.7154 32.235 76.8411 31.1562 76.8411C30.0775 76.8411 29.2031 77.7154 29.2031 78.7942V80.7473C29.2031 81.8261 30.0775 82.7004 31.1562 82.7004Z" fill="black"/>
<path d="M40.2711 35.4531C40.2711 34.3743 39.3968 33.5 38.318 33.5H36.3649C35.2861 33.5 34.4117 34.3743 34.4117 35.4531C34.4117 36.5319 35.2861 37.4062 36.3649 37.4062H38.318C39.396 37.4062 40.2711 36.5319 40.2711 35.4531Z" fill="black"/>
<path d="M92.1868 117.094H90.2337C89.1549 117.094 88.2806 117.968 88.2806 119.047C88.2806 120.126 89.1549 121 90.2337 121H92.1868C93.2649 121 94.14 120.126 94.14 119.047C94.14 117.968 93.2649 117.094 92.1868 117.094Z" fill="black"/>
<path d="M62.89 117.094H60.9368C59.858 117.094 58.9837 117.968 58.9837 119.047C58.9837 120.126 59.858 121 60.9368 121H62.89C63.968 121 64.8431 120.126 64.8431 119.047C64.8431 117.968 63.968 117.094 62.89 117.094Z" fill="black"/>
<path d="M98.3437 111.811C97.2649 111.811 96.3906 112.685 96.3906 113.764V115.141C96.3906 115.238 96.3837 115.335 96.3692 115.43C96.2121 116.497 96.9498 117.49 98.0164 117.648C98.1133 117.661 98.2095 117.668 98.3041 117.668C99.257 117.668 100.091 116.97 100.234 116C100.276 115.717 100.297 115.428 100.297 115.141V113.764C100.297 112.685 99.4225 111.811 98.3437 111.811Z" fill="black"/>
<path d="M82.4212 117.094H80.4681C79.3893 117.094 78.515 117.968 78.515 119.047C78.515 120.126 79.3893 121 80.4681 121H82.4212C83.4992 121 84.3743 120.126 84.3743 119.047C84.3743 117.968 83.4992 117.094 82.4212 117.094Z" fill="black"/>
<path d="M72.6556 117.094H70.7025C69.6237 117.094 68.7493 117.968 68.7493 119.047C68.7493 120.126 69.6237 121 70.7025 121H72.6556C73.7336 121 74.6087 120.126 74.6087 119.047C74.6087 117.968 73.7336 117.094 72.6556 117.094Z" fill="black"/>
<path d="M56.2867 65.5312H70.3492C71.428 65.5312 72.3024 64.6569 72.3024 63.5781C72.3024 62.4993 71.428 61.625 70.3492 61.625H56.2867C55.2079 61.625 54.3336 62.4993 54.3336 63.5781C54.3336 64.6569 55.2079 65.5312 56.2867 65.5312Z" fill="black"/>
<path d="M88.7735 89.75H56.2867C55.2079 89.75 54.3336 90.6243 54.3336 91.7031C54.3336 92.7819 55.2079 93.6562 56.2867 93.6562H88.7735C89.8523 93.6562 90.7266 92.7819 90.7266 91.7031C90.7266 90.6243 89.8523 89.75 88.7735 89.75Z" fill="black"/>
<path d="M97.8043 89.75C97.2909 89.75 96.7873 89.959 96.4242 90.3222C96.0602 90.6854 95.8512 91.1897 95.8512 91.7031C95.8512 92.2166 96.0602 92.7209 96.4242 93.084C96.7873 93.4472 97.2909 93.6562 97.8043 93.6562C98.3185 93.6562 98.8221 93.4472 99.1852 93.084C99.5492 92.7209 99.7574 92.2166 99.7574 91.7031C99.7574 91.1897 99.5492 90.6854 99.1852 90.3222C98.8221 89.959 98.3185 89.75 97.8043 89.75Z" fill="black"/>
<path d="M56.2867 79.5938H70.3492C71.428 79.5938 72.3024 78.7194 72.3024 77.6406C72.3024 76.5618 71.428 75.6875 70.3492 75.6875H56.2867C55.2079 75.6875 54.3336 76.5618 54.3336 77.6406C54.3336 78.7194 55.2079 79.5938 56.2867 79.5938Z" fill="black"/>
<path d="M98.3438 33.5H68.9164C67.8376 33.5 66.9633 34.3743 66.9633 35.4531C66.9633 36.5319 67.8376 37.4062 68.9164 37.4062H96.3907V47.5625H56.2867C55.2079 47.5625 54.3336 48.4368 54.3336 49.5156C54.3336 50.5944 55.2079 51.4688 56.2867 51.4688H98.3438C99.4226 51.4688 100.297 50.5944 100.297 49.5156V35.4531C100.297 34.3743 99.4226 33.5 98.3438 33.5Z" fill="black"/>
<path d="M98.3438 61.625H79.2031C78.1243 61.625 77.25 62.4993 77.25 63.5781V77.6406C77.25 78.7194 78.1243 79.5938 79.2031 79.5938H98.3438C99.4225 79.5938 100.297 78.7194 100.297 77.6406V63.5781C100.297 62.4993 99.4225 61.625 98.3438 61.625ZM96.3906 75.6875H81.1562V65.5312H96.3906V75.6875Z" fill="black"/>
</svg>
