<svg width="141" height="141" viewBox="0 0 141 141" fill="none" xmlns="http://www.w3.org/2000/svg">
<circle cx="70.5" cy="70.5" r="70.5" fill="white"/>
<path d="M114.925 55.2932H107.129C102.007 55.2932 97.8555 59.4451 97.8555 64.5667V80.4939C97.8555 82.0793 98.5154 83.509 99.5744 84.5268H113.451C116.542 84.5268 119.047 82.022 119.047 78.9314V63.0042C119.047 59.7892 117.41 56.9564 114.925 55.2932Z" fill="#54C991"/>
<path d="M31.3561 48.9639H40.8112V78.4995H31.3561V48.9639Z" fill="#6448B6"/>
<path d="M43.9409 119.04V90.9752C43.9409 88.8611 40.1407 93.8446 35.9742 88.5712C34.5445 86.7615 39.3205 80.1125 37.1766 79.2053C32.6371 80.5901 29.3336 84.8099 29.3336 89.8033V119.04H43.9409Z" fill="#6448B6"/>
<path d="M97.9531 84.5269H112.016V119.04H97.9531V84.5269Z" fill="#FFBF36"/>
<path d="M58.4314 24.4758L72.6068 38.6512C74.1975 40.242 74.1975 42.8207 72.6068 44.4122C71.0153 46.0029 68.4366 46.0029 66.8458 44.4122L56.3783 33.9447L58.4314 24.4758Z" fill="#6448B6"/>
<path d="M54.6479 27.2163L37.3032 44.5609L41.5703 48.7533L58.4382 31.8854C60.0884 30.2352 60.405 27.7579 59.3911 25.788C57.7294 25.4523 55.9365 25.9276 54.6479 27.2163Z" fill="#6448B6"/>
<path d="M59.9679 28.1625C59.9679 31.0441 57.6325 33.3795 54.7509 33.3795C51.87 33.3795 49.5347 31.0441 49.5347 28.1625C49.5347 25.2816 51.87 22.9463 54.7509 22.9463C57.6325 22.9463 59.9679 25.2816 59.9679 28.1625Z" fill="#ADE5FF"/>
<path d="M40.8112 48.964C40.8112 52.707 37.7763 55.742 34.0325 55.742C30.2896 55.742 27.2546 52.707 27.2546 48.964C27.2546 45.2203 30.2896 42.1853 34.0325 42.1853C37.7763 42.1853 40.8112 45.2203 40.8112 48.964Z" fill="#ADE5FF"/>
<path d="M37.3528 89.2144C37.3528 91.8038 36.6219 93.9019 34.0325 93.9019C31.4439 93.9019 29.345 91.8038 29.345 89.2144C29.345 86.6257 31.4439 84.5269 34.0325 84.5269C36.6219 84.5269 37.3528 86.6257 37.3528 89.2144Z" fill="#ADE5FF"/>
<path d="M101.664 78.3333H50.8172C48.1629 79.2717 46.2601 81.8023 46.2601 84.7786C46.2601 88.5536 49.321 91.6145 53.0961 91.6145H103.943C106.597 90.6753 108.5 88.1454 108.5 85.1692C108.5 81.3934 105.439 78.3333 101.664 78.3333Z" fill="#6448B6"/>
<path d="M102.934 46.8483C102.934 49.8322 104.901 52.356 107.609 53.1937C109.971 52.1759 111.625 49.8276 111.625 47.0924V42.7124H102.934V46.8483Z" fill="#FEDA9B"/>
<path d="M104.984 34.1826C100.608 34.1826 97.0597 37.731 97.0597 42.1073V42.713H112.909V42.1073C112.909 37.731 109.361 34.1826 104.984 34.1826Z" fill="#FFBF36"/>
<path d="M56.7292 64.2708H65.8113V78.3333H56.7292V64.2708Z" fill="#FFBF36"/>
<path d="M82.3929 64.2708H91.7031V78.3333H82.3929V64.2708Z" fill="#FFBF36"/>
<path d="M53.4456 92.5254H97.9532V119.039H53.4456V92.5254Z" fill="#6448B6"/>
<path d="M112.029 52.0058C113.004 50.6119 113.578 48.9182 113.578 47.0924V44.5457C114.327 44.2719 114.862 43.5555 114.862 42.7124V42.1074C114.862 36.6608 110.431 32.2296 104.984 32.2296C99.5378 32.2296 95.1066 36.6608 95.1066 42.1074V42.7124C95.1066 43.5555 95.6422 44.2719 96.3906 44.5457V47.0924C96.3906 48.9182 96.9644 50.6119 97.9394 52.0058C93.0444 53.0083 89.3022 57.2067 88.9916 62.3177H77.6406C76.5618 62.3177 75.6875 63.192 75.6875 64.2708V76.3802H67.7644V64.2708C67.7644 63.192 66.8893 62.3177 65.8112 62.3177H51.7487C50.67 62.3177 49.7956 63.192 49.7956 64.2708V76.3802H42.7644V50.3212L56.3783 36.7073L65.4649 45.7932C66.1889 46.5179 67.0541 47.0184 67.9727 47.2961V50.5943L63.8902 54.6768C63.524 55.043 63.318 55.5397 63.318 56.0577V59.6649C63.318 60.743 64.1931 61.618 65.2711 61.618C66.3499 61.618 67.2242 60.743 67.2242 59.6649V56.8672L69.9258 54.1657L72.6273 56.8672V59.372C72.6273 60.4507 73.5024 61.3251 74.5805 61.3251C75.6593 61.3251 76.5336 60.4507 76.5336 59.372V56.0577C76.5336 55.5397 76.3276 55.043 75.9614 54.6768L71.8789 50.5943V47.1581C72.6479 46.8651 73.3689 46.4111 73.9877 45.7932C75.126 44.6549 75.7531 43.1412 75.7531 41.5314C75.7531 39.9216 75.126 38.4087 73.9877 37.2704L59.813 23.0949C59.8092 23.0919 59.8054 23.0888 59.8023 23.0858C56.9985 20.2995 52.4507 20.3049 49.653 23.101L32.3594 40.3946C28.3433 41.1781 25.3015 44.7212 25.3015 48.9639V59.079C25.3015 60.157 26.1765 61.0321 27.2546 61.0321C28.3334 61.0321 29.2077 60.157 29.2077 59.079V56.2355C30.5909 57.1571 32.2503 57.695 34.0325 57.695C35.8155 57.695 37.4749 57.1571 38.8581 56.2355V77.0783C38.7658 77.1172 38.6758 77.1591 38.585 77.2011C37.1301 76.6586 35.6011 76.3802 34.0325 76.3802C32.3281 76.3802 30.7008 76.712 29.2077 77.3094V73.5313C29.2077 72.4533 28.3334 71.5782 27.2546 71.5782C26.1758 71.5782 25.3015 72.4533 25.3015 73.5313V79.7455C22.6617 82.1327 21 85.582 21 89.4127V119.04C21 120.118 21.8743 120.993 22.9531 120.993H112.016C113.094 120.993 113.969 120.118 113.969 119.04V86.4601C117.89 86.1938 121 82.9201 121 78.9314V63.0043C121 57.5867 117.143 53.0525 112.029 52.0058ZM104.879 51.7777C102.343 51.7212 100.297 49.6422 100.297 47.0924V44.6655H109.672V47.0924C109.672 49.6422 107.626 51.7212 105.09 51.7777H104.879ZM110.803 40.7593H106.938V36.4647C108.859 37.1323 110.338 38.7535 110.803 40.7593ZM103.031 36.4647V40.7593H99.1662C99.6308 38.7535 101.11 37.1323 103.031 36.4647ZM101.664 80.2864C104.356 80.2864 106.547 82.4768 106.547 85.1692C106.547 87.8616 104.356 90.052 101.664 90.052H42.2891C39.5966 90.052 37.4062 87.8616 37.4062 85.1692C37.4062 82.4768 39.5966 80.2864 42.2891 80.2864H101.664ZM99.9062 93.9583H101.664C102.129 93.9583 102.586 93.9209 103.031 93.8515V117.087H99.9062V93.9583ZM33.6038 86.5173C33.8815 88.3179 34.71 89.9384 35.9086 91.2041C35.4096 91.6756 34.7436 91.9487 34.0325 91.9487C32.525 91.9487 31.2982 90.7227 31.2982 89.2143C31.2982 87.8532 32.2991 86.7241 33.6038 86.5173ZM79.5938 66.2239H89.75V76.3802H79.5938V66.2239ZM53.7019 66.2239H63.8581V76.3802H53.7019V66.2239ZM49.6812 33.2329C50.5036 34.0546 51.4901 34.6512 52.5674 34.9937L42.051 45.5101C41.1523 43.4326 39.4708 41.7709 37.3788 40.8997L47.9272 30.352C48.2629 31.4056 48.8465 32.3975 49.6812 33.2329ZM71.8469 41.5314C71.8469 42.0975 71.6256 42.63 71.2251 43.0306C70.3988 43.8576 69.053 43.8576 68.2267 43.0306L59.1401 33.9447L59.8191 33.2665C60.6393 32.4455 61.2351 31.4606 61.58 30.3864L71.2251 40.0322C71.6256 40.4327 71.8469 40.9653 71.8469 41.5314ZM57.0565 25.8637C57.6768 26.4832 58.0178 27.3071 58.0178 28.1838C58.0178 28.9825 57.7317 29.7356 57.2129 30.3322C57.1603 30.3749 57.1084 30.4207 57.0588 30.4703C55.7862 31.7429 53.7156 31.7429 52.443 30.4703C51.1712 29.1977 51.1712 27.1278 52.443 25.8553C52.4728 25.8255 52.4995 25.7942 52.5269 25.7629C53.8133 24.5888 55.8129 24.6193 57.0565 25.8637ZM34.0325 53.7888C31.3722 53.7888 29.2077 51.6243 29.2077 48.9639C29.2077 46.3028 31.3722 44.1383 34.0325 44.1383C36.6937 44.1383 38.8581 46.3028 38.8581 48.9639C38.8581 51.6243 36.6937 53.7888 34.0325 53.7888ZM24.9062 89.4127C24.9062 84.3803 29.0002 80.2864 34.0325 80.2864C34.343 80.2864 34.6505 80.3024 34.9549 80.333C34.5002 81.0204 34.1386 81.7741 33.8906 82.5775C30.2941 82.6538 27.3919 85.6003 27.3919 89.2143C27.3919 92.8764 30.3712 95.8549 34.0325 95.8549C36.0665 95.8549 37.9479 94.9364 39.1938 93.3937C40.1574 93.7576 41.2003 93.9583 42.2891 93.9583H43.1596V117.086H24.9062V89.4127ZM96 117.087H47.0658V103.333H69.9258C71.0046 103.333 71.8789 102.458 71.8789 101.38C71.8789 100.301 71.0046 99.427 69.9258 99.427H47.0658V93.9583H96V117.087ZM106.938 117.087V92.1959C108.4 91.095 109.509 89.55 110.062 87.7625V117.087H106.938ZM117.094 78.9314C117.094 80.764 115.732 82.2807 113.969 82.5333V65.9271C113.969 64.8483 113.094 63.974 112.016 63.974C110.937 63.974 110.062 64.8483 110.062 65.9271V78.0525V78.0563V82.576C108.953 78.9917 105.608 76.3802 101.664 76.3802H99.9062V65.9271C99.9062 64.8483 99.0319 63.974 97.9531 63.974C96.8743 63.974 96 64.8483 96 65.9271V76.3802H93.6562V64.2708C93.6562 63.636 93.3518 63.073 92.8826 62.7167C93.0345 58.8127 96.2556 55.6839 100.196 55.6839H104.879C104.914 55.6839 104.949 55.6862 104.984 55.6862C105.02 55.6862 105.055 55.6847 105.09 55.6839H109.773C113.81 55.6839 117.094 58.9676 117.094 63.0043V78.9314Z" fill="black"/>
<path d="M27.2538 68.8445C27.7672 68.8445 28.2715 68.6354 28.6347 68.2715C29.0002 67.9084 29.2069 67.4048 29.2069 66.8914C29.2069 66.3771 29.0002 65.8736 28.6347 65.5104C28.2715 65.1465 27.7695 64.9382 27.2538 64.9382C26.7403 64.9382 26.236 65.1465 25.8729 65.5104C25.5097 65.8736 25.3007 66.3771 25.3007 66.8914C25.3007 67.4048 25.5097 67.9084 25.8729 68.2715C26.236 68.6354 26.7403 68.8445 27.2538 68.8445Z" fill="black"/>
<path d="M34.0333 47.01C33.5176 47.01 33.0156 47.2191 32.6524 47.5822C32.2892 47.9461 32.0802 48.4497 32.0802 48.9631C32.0802 49.4789 32.2892 49.9809 32.6524 50.3441C33.0156 50.7072 33.5176 50.9163 34.0333 50.9163C34.5468 50.9163 35.0503 50.7072 35.4142 50.3441C35.7774 49.9809 35.9865 49.4774 35.9865 48.9631C35.9865 48.4497 35.7774 47.9461 35.4142 47.5822C35.0503 47.2191 34.5468 47.01 34.0333 47.01Z" fill="black"/>
<path d="M53.3693 29.5433C53.7339 29.9064 54.236 30.1155 54.7502 30.1155C55.2652 30.1155 55.7672 29.9064 56.1326 29.5433C56.4958 29.1801 56.7048 28.6766 56.7048 28.1624C56.7048 27.6489 56.4958 27.1454 56.1326 26.7814C55.7672 26.419 55.2652 26.2092 54.7502 26.2092C54.236 26.2092 53.7339 26.4183 53.3693 26.7814C53.0061 27.1454 52.7986 27.6489 52.7986 28.1624C52.7986 28.6766 53.0061 29.1801 53.3693 29.5433Z" fill="black"/>
<path d="M60.4531 83.2153C59.9397 83.2153 59.4354 83.4244 59.0722 83.7875C58.709 84.1515 58.5 84.655 58.5 85.1685C58.5 85.6819 58.709 86.1862 59.0722 86.5494C59.4354 86.9141 59.9397 87.1216 60.4531 87.1216C60.9666 87.1216 61.4709 86.9141 61.834 86.5494C62.1972 86.1862 62.4062 85.6819 62.4062 85.1685C62.4062 84.655 62.1972 84.1507 61.834 83.7875C61.4709 83.4244 60.9666 83.2153 60.4531 83.2153Z" fill="black"/>
<path d="M47.9531 83.2153C47.4397 83.2153 46.9354 83.4244 46.5722 83.7875C46.209 84.1515 46 84.655 46 85.1685C46 85.6842 46.209 86.1862 46.5722 86.5494C46.9354 86.9125 47.4374 87.1216 47.9531 87.1216C48.4666 87.1216 48.9709 86.9125 49.334 86.5494C49.6972 86.1862 49.9062 85.6842 49.9062 85.1685C49.9062 84.655 49.6972 84.1507 49.334 83.7875C48.9709 83.4244 48.4666 83.2153 47.9531 83.2153Z" fill="black"/>
<path d="M97.9531 87.1216C98.4666 87.1216 98.9709 86.9141 99.334 86.5494C99.6972 86.1862 99.9062 85.6842 99.9062 85.1685C99.9062 84.655 99.6972 84.1507 99.334 83.7875C98.9709 83.4244 98.4666 83.2153 97.9531 83.2153C97.4397 83.2153 96.9354 83.4244 96.5722 83.7875C96.209 84.1515 96 84.655 96 85.1685C96 85.6842 96.209 86.1862 96.5722 86.5494C96.9354 86.9148 97.4397 87.1216 97.9531 87.1216Z" fill="black"/>
<path d="M72.9531 83.2153C72.4397 83.2153 71.9354 83.4244 71.5722 83.7875C71.209 84.1515 71 84.655 71 85.1685C71 85.6819 71.209 86.1862 71.5722 86.5494C71.9354 86.9141 72.4397 87.1216 72.9531 87.1216C73.4666 87.1216 73.9709 86.9141 74.334 86.5494C74.6972 86.1862 74.9062 85.6842 74.9062 85.1685C74.9062 84.655 74.6972 84.1507 74.334 83.7875C73.9709 83.4244 73.4666 83.2153 72.9531 83.2153Z" fill="black"/>
<path d="M85.4531 83.2153C84.9397 83.2153 84.4354 83.4244 84.0722 83.7875C83.709 84.1515 83.5 84.655 83.5 85.1685C83.5 85.6819 83.709 86.1862 84.0722 86.5494C84.4354 86.9141 84.9397 87.1216 85.4531 87.1216C85.9666 87.1216 86.4709 86.9141 86.834 86.5494C87.1972 86.1862 87.4062 85.6819 87.4062 85.1685C87.4062 84.655 87.1972 84.1507 86.834 83.7875C86.4709 83.4244 85.9666 83.2153 85.4531 83.2153Z" fill="black"/>
<path d="M77.4255 103.333C77.9397 103.333 78.4432 103.125 78.8064 102.76C79.1696 102.397 79.3786 101.895 79.3786 101.379C79.3786 100.866 79.1696 100.362 78.8064 99.9985C78.4432 99.6353 77.9412 99.4263 77.4255 99.4263C76.912 99.4263 76.4077 99.6353 76.0446 99.9985C75.6814 100.362 75.4724 100.866 75.4724 101.379C75.4724 101.895 75.6814 102.397 76.0446 102.76C76.4077 103.126 76.912 103.333 77.4255 103.333Z" fill="black"/>
</svg>
