<svg width="141" height="141" viewBox="0 0 141 141" fill="none" xmlns="http://www.w3.org/2000/svg">
<circle cx="70.5" cy="70.5" r="70.5" fill="white"/>
<path d="M57.7549 76.1829L50.8395 74.5256L43.8826 76.1875C38.6418 77.4395 34.9445 82.1239 34.9445 87.5122V100.641H40.7193L63.4238 79.4278C61.9215 77.868 59.9781 76.7157 57.7549 76.1829Z" fill="#54C991"/>
<path d="M48.4984 69.5467C52.7287 68.0356 55.7568 63.9948 55.7568 59.2454V52.4504H41.2399V59.2454C41.2399 63.9948 44.268 68.0356 48.4984 69.5467Z" fill="#FFCDAC"/>
<path d="M41.4016 54.5996H41.4207C46.1422 54.5996 50.7752 53.3178 54.8252 50.891L55.7568 54.5996V51.9666C55.7568 47.6029 53.2008 43.8371 49.5045 42.082C44.7418 44.1049 41.4016 48.8248 41.4016 54.3254C41.4016 54.3254 41.4016 54.5996 41.4016 54.5996Z" fill="#54C991"/>
<path d="M110.109 76.1879L102.094 74.2733V69.3518H92.2808V74.2575L90.2558 74.7426L96.3053 76.1877C101.546 77.4397 105.243 82.1241 105.243 87.5124V100.641H119.047V87.5124C119.047 82.1243 115.35 77.4399 110.109 76.1879Z" fill="#6448B6"/>
<path d="M70.6406 81.9179L79.7855 79.7265L77.8232 79.2577L64.1551 79.2358L52.9625 81.9179C45.668 83.6659 40.524 90.188 40.524 97.6888V108.454H58.2023V97.6888C58.2021 90.188 63.3461 83.6659 70.6406 81.9179Z" fill="white"/>
<path d="M88.9865 81.9246L79.7855 79.7266L70.6406 81.918C63.3461 83.666 58.2021 90.1881 58.2021 97.6889V108.454H101.436V97.6982C101.436 90.1932 96.2863 83.6686 88.9865 81.9246Z" fill="#C954AF"/>
<path d="M44.5352 69.3518H39.75V74.4075L44.8371 86.5881L47.2293 80.8583L44.5352 74.4075V69.3518Z" fill="white"/>
<path d="M96.8555 69.3518H92.0703V74.3899L97.1629 86.5881L99.5559 80.8583L96.8555 74.3899V69.3518Z" fill="white"/>
<path d="M49.9297 69.3518H44.5352V74.4075L47.2293 80.8583L49.9297 74.3899V69.3518Z" fill="#FFCDAC"/>
<path d="M102.25 69.3518H96.8555V74.3899L99.5559 80.8583L102.25 74.4075V69.3518Z" fill="#FFCDAC"/>
<path d="M70.5131 75.2975V73.707H64.5561V75.2975C64.5561 76.4146 64.249 77.4701 63.7098 78.3773L71.002 94.9264L73.9799 88.1654L69.6668 78.3773C70.2061 77.4701 70.5131 76.4146 70.5131 75.2975Z" fill="white"/>
<path d="M77.4401 75.2975V73.7073H70.5131V75.2977C70.5131 76.4149 70.2061 77.4704 69.6668 78.3776L73.9799 88.1657L78.2891 78.3821C77.7483 77.4739 77.4401 76.4167 77.4401 75.2975Z" fill="#FFEFD5"/>
<path d="M76.1758 72.657C82.0414 70.538 86.2344 64.9222 86.2344 58.3257V47.8142H66.1172V58.3257C66.1172 64.9222 70.3102 70.5382 76.1758 72.657Z" fill="#FFEFD5"/>
<path d="M77.2213 34.2822C70.7066 36.9514 66.1172 43.3543 66.1172 50.8303V51.6004C69.9672 50.9225 73.4932 48.9111 76.0434 45.868L85.9603 51.6943C86.0525 51.6312 86.1436 51.5662 86.2346 51.5016V48.1881C86.2344 41.991 82.5324 36.6623 77.2213 34.2822Z" fill="#FFBF36"/>
<path d="M100.916 69.5277C105.118 68.0012 108.119 63.974 108.119 59.2451V52.4502H93.7135V59.2451C93.7135 63.974 96.7148 68.0014 100.916 69.5277Z" fill="#FFCDAC"/>
<path d="M102.024 42.1594C97.4664 44.1375 94.1965 48.5172 93.8061 53.7022C94.1332 53.7903 94.4623 53.8709 94.7928 53.9461L94.9309 53.3963C95.4473 53.7059 95.9731 53.9965 96.5041 54.276C97.8471 54.4885 99.209 54.5999 100.579 54.5999H108.119V51.9668C108.119 47.6655 105.635 43.9459 102.024 42.1594Z" fill="#54C991"/>
<path d="M22.9531 102.595H38.5709V108.454C38.5709 109.533 39.4455 110.407 40.524 110.407H61.9506C63.0291 110.407 63.9037 109.533 63.9037 108.454C63.9037 107.375 63.0291 106.501 61.9506 106.501H53.2313V97.9047C53.2313 96.826 52.3566 95.9516 51.2781 95.9516C50.1996 95.9516 49.325 96.826 49.325 97.9047V106.501H42.477V97.6887C42.477 91.0648 46.9758 85.3607 53.4174 83.8172L63.0234 81.5152L69.2043 95.577C69.516 96.2861 70.2174 96.7441 70.992 96.7441H70.9922C71.7668 96.7441 72.4684 96.2863 72.7801 95.5771L78.9547 81.5359L88.5328 83.824C94.9803 85.3641 99.483 91.0693 99.483 97.6978V99.8773C99.3832 100.112 99.3277 100.37 99.3277 100.641C99.3277 100.912 99.3832 101.171 99.483 101.405V106.501H92.675V97.9045C92.675 96.8258 91.8004 95.9514 90.7219 95.9514C89.6434 95.9514 88.7688 96.8258 88.7688 97.9045V106.501H79.2033C78.1248 106.501 77.2502 107.375 77.2502 108.454C77.2502 109.532 78.1248 110.407 79.2033 110.407H101.436C102.515 110.407 103.389 109.532 103.389 108.454V102.594H119.047C120.125 102.594 121 101.72 121 100.641V87.5121C121 81.1939 116.708 75.7559 110.562 74.2879L104.047 72.7314V70.1471C107.664 67.8613 110.072 63.8303 110.072 59.2451V54.5994V52.45V51.9664C110.072 44.8584 104.289 39.0758 97.1813 39.0758C93.3469 39.0758 89.9002 40.7605 87.5367 43.4264C85.4668 36.2578 78.8463 31 71.0203 31H71.0201C63.1814 31 56.552 36.2744 54.4936 43.4605C52.1295 40.775 48.6701 39.0758 44.8193 39.0758C37.7111 39.0758 31.9283 44.8586 31.9283 51.9664V52.45V54.5994V59.2451C31.9283 63.8305 34.3369 67.8615 37.9533 70.1471V72.7314L31.4381 74.2879C25.2922 75.7563 21 81.1941 21 87.5125V100.642C21 101.72 21.8746 102.595 22.9531 102.595ZM55.7086 66.1309C57.1811 69.0076 59.441 71.4166 62.2018 73.0736V75.9477C60.9756 75.1871 59.6303 74.624 58.21 74.2838L51.6721 72.7172V70.1557C53.298 69.1309 54.6791 67.7535 55.7086 66.1309ZM90.3279 70.1557V72.7172L83.79 74.2838C82.3611 74.6262 81.0082 75.1943 79.776 75.9619V73.1105C82.5537 71.4592 84.8295 69.0484 86.3133 66.1654C87.3408 67.7729 88.7135 69.1381 90.3279 70.1557ZM84.29 54.5996V58.7844C84.0471 65.8959 78.1898 71.6074 71.0199 71.6074C63.6965 71.6074 57.7383 65.6494 57.7383 58.326V53.8084H63.234C68.2191 53.8084 72.9439 51.8381 76.4346 48.3512L84.2902 52.9662V54.5996H84.29ZM52.5072 80.0186C51.3539 80.2949 50.2518 80.6795 49.2053 81.1537L51.1076 76.5986L57.2996 78.0824C57.7799 78.1975 58.2479 78.3496 58.7008 78.5344L52.5072 80.0186ZM70.9926 89.9381L66.108 78.8254V74.7973C67.665 75.2625 69.3137 75.5135 71.0199 75.5135C72.7035 75.5135 74.3311 75.2689 75.8697 74.8156V78.8471L70.9926 89.9381ZM83.2635 78.5492C83.7275 78.3578 84.2074 78.2006 84.7004 78.0824L90.8773 76.6023L92.7875 81.1777C91.7275 80.6949 90.6102 80.3045 89.4402 80.025L83.2635 78.5492ZM117.094 87.5125V98.6885H113.188V90.0109C113.188 88.9322 112.313 88.0578 111.234 88.0578C110.156 88.0578 109.281 88.9322 109.281 90.0109V98.6885H103.389V97.6982C103.389 93.4211 101.915 89.4473 99.3955 86.3105L103.449 76.6051L109.655 78.0877C114.035 79.1338 117.094 83.0094 117.094 87.5125ZM100.145 74.3787L97.1633 81.5191L94.2215 74.4727C94.2293 74.4018 94.235 74.3305 94.235 74.259C94.235 74.2408 94.2348 74.2225 94.2342 74.2043V71.7922C95.1814 72.0146 96.167 72.1359 97.1811 72.1359C98.1996 72.1359 99.1898 72.0135 100.141 71.7891V74.273C100.141 74.3088 100.143 74.3436 100.145 74.3787ZM97.1811 68.2297C92.227 68.2297 88.1963 64.1992 88.1963 59.2451V58.9264C88.2031 58.727 88.208 58.527 88.208 58.3258V53.6746C92.0477 55.5629 96.2807 56.5525 100.579 56.5525H106.166V59.2451C106.166 64.1994 102.135 68.2297 97.1811 68.2297ZM97.1811 42.9822C102.135 42.9822 106.166 47.0127 106.166 51.9666V52.4502V52.6465H100.579C96.3594 52.6465 92.2127 51.5385 88.5582 49.4383C89.6531 45.7113 93.1043 42.9822 97.1811 42.9822ZM57.7383 48.1879C57.7383 40.8645 63.6965 34.9066 71.0201 34.9066C78.3436 34.9066 84.3018 40.8646 84.3018 48.1879V48.4426L77.0527 44.1838C76.2303 43.7004 75.1791 43.8822 74.5664 44.6133C71.75 47.9742 67.6195 49.902 63.2342 49.902H57.7383V48.8613V48.1879ZM35.8342 51.9666C35.8342 47.0125 39.8648 42.9822 44.8189 42.9822C48.8957 42.9822 52.3469 45.7113 53.4416 49.4385C49.7871 51.5385 45.6406 52.6467 41.4205 52.6467H35.8342V52.4504V51.9666ZM35.8342 56.5527H41.4207C45.7238 56.5527 49.9611 55.5613 53.8037 53.6693V54.5996V59.2453C53.8037 64.1994 49.773 68.2299 44.8189 68.2299C39.8648 68.2299 35.8342 64.1994 35.8342 59.2453V56.5527ZM44.8189 72.1359C45.833 72.1359 46.8186 72.0145 47.7658 71.7922V74.1496C47.7637 74.1863 47.7627 74.223 47.7627 74.2598C47.7627 74.3213 47.7686 74.3824 47.7744 74.4436L44.8193 81.5191L41.8531 74.4139C41.8564 74.3672 41.8592 74.3205 41.8592 74.2732V71.7893C42.8102 72.0137 43.8004 72.1359 44.8189 72.1359ZM24.9062 87.5125C24.9062 83.0096 27.9652 79.134 32.3451 78.0877L38.5361 76.6086L42.5768 86.2873C40.0496 89.4266 38.5709 93.4059 38.5709 97.6887V98.6883H32.7188V90.0107C32.7188 88.932 31.8441 88.0576 30.7656 88.0576C29.6871 88.0576 28.8125 88.932 28.8125 90.0107V98.6883H24.9062V87.5125Z" fill="black"/>
<path d="M66.2539 56.78C66.2051 56.6609 66.1443 56.5476 66.074 56.4421C66.002 56.3347 65.9199 56.2351 65.8299 56.1453C65.74 56.0554 65.6404 55.9734 65.533 55.9031C65.4275 55.8328 65.3143 55.7722 65.1971 55.7234C65.0779 55.6746 64.9549 55.6375 64.8318 55.6121C64.5799 55.5613 64.3201 55.5613 64.0682 55.6121C63.9432 55.6375 63.8201 55.6746 63.7029 55.7234C63.5838 55.7722 63.4707 55.8328 63.3652 55.9031C63.2576 55.9734 63.158 56.0554 63.0682 56.1453C62.7049 56.5085 62.4959 57.0125 62.4959 57.5261C62.4959 57.6531 62.5094 57.782 62.535 57.907C62.5603 58.032 62.5973 58.155 62.6461 58.2722C62.6949 58.3914 62.7557 58.5046 62.8258 58.6101C62.8961 58.7175 62.9781 58.8171 63.068 58.907C63.1578 58.9968 63.2574 59.0789 63.365 59.1492C63.4705 59.2195 63.5836 59.28 63.7027 59.3289C63.8201 59.3777 63.943 59.4167 64.068 59.4402C64.193 59.4656 64.3219 59.4792 64.4488 59.4792C64.9625 59.4792 65.4664 59.2703 65.8295 58.907C65.9195 58.8171 66.0016 58.7175 66.0736 58.6101C66.1439 58.5046 66.2047 58.3914 66.2535 58.2722C66.3023 58.155 66.3393 58.032 66.3646 57.907C66.39 57.782 66.4018 57.6531 66.4018 57.5261C66.4018 57.3992 66.3898 57.2703 66.3646 57.1453C66.3394 57.0203 66.3027 56.8972 66.2539 56.78Z" fill="black"/>
<path d="M76.1289 56.1453C76.0391 56.2351 75.957 56.3347 75.8867 56.4421C75.8166 56.5476 75.7558 56.6609 75.707 56.78C75.6582 56.8972 75.6213 57.0203 75.5957 57.1453C75.5703 57.2703 75.5568 57.3992 75.5568 57.5261C75.5568 57.6531 75.5703 57.782 75.5957 57.907C75.6213 58.032 75.6582 58.155 75.707 58.2742C75.7558 58.3914 75.8166 58.5046 75.8867 58.6101C75.957 58.7175 76.0391 58.8171 76.1289 58.907C76.2187 58.9968 76.3183 59.0789 76.4258 59.1511C76.5312 59.2214 76.6445 59.28 76.7637 59.3289C76.8809 59.3777 77.0039 59.4167 77.1289 59.4421C77.2539 59.4675 77.3828 59.4792 77.5098 59.4792C77.6387 59.4792 77.7656 59.4675 77.8926 59.4421C78.0156 59.4167 78.1387 59.3777 78.2578 59.3289C78.375 59.28 78.4883 59.2214 78.5937 59.1511C78.7012 59.0789 78.8008 58.9968 78.8926 58.907C79.2557 58.5437 79.4629 58.0398 79.4629 57.5261C79.4629 57.0125 79.2557 56.5085 78.8926 56.1453C78.8006 56.0554 78.7012 55.9734 78.5937 55.9031C78.4883 55.8328 78.375 55.7722 78.2578 55.7234C78.1387 55.6746 78.0156 55.6355 77.8926 55.6121C77.6406 55.5613 77.3808 55.5613 77.1289 55.6121C77.0039 55.6355 76.8807 55.6746 76.7637 55.7234C76.6445 55.7722 76.5312 55.8328 76.4258 55.9031C76.3182 55.9734 76.2187 56.0554 76.1289 56.1453Z" fill="black"/>
<path d="M71.9969 62.7197C71.4193 63.2973 70.4797 63.2973 69.9021 62.7197C69.1392 61.957 67.9029 61.957 67.1398 62.7197C66.3771 63.4824 66.3771 64.7191 67.1398 65.482C68.1902 66.5322 69.5697 67.0574 70.9494 67.0574C72.3291 67.0574 73.7086 66.5324 74.759 65.482C75.5217 64.7193 75.5217 63.4826 74.759 62.7197C73.9963 61.957 72.76 61.957 71.9969 62.7197Z" fill="black"/>
<path d="M69.3262 109.538C69.3965 109.645 69.4785 109.745 69.5684 109.835C69.6582 109.925 69.7578 110.007 69.8652 110.077C69.9707 110.147 70.084 110.208 70.2031 110.257C70.3203 110.306 70.4432 110.345 70.5684 110.368C70.6934 110.394 70.8223 110.407 70.9492 110.407C71.4629 110.407 71.9668 110.198 72.3299 109.835C72.4197 109.745 72.5018 109.645 72.5721 109.538C72.6424 109.433 72.7029 109.319 72.7518 109.2C72.8006 109.083 72.8396 108.96 72.8631 108.835C72.8885 108.71 72.9022 108.581 72.9022 108.454C72.9022 108.327 72.8885 108.198 72.8631 108.073C72.8396 107.948 72.8006 107.825 72.7518 107.708C72.7029 107.589 72.6424 107.476 72.5721 107.37C72.5018 107.263 72.4197 107.163 72.3299 107.073C71.877 106.62 71.2029 106.411 70.5682 106.54C70.443 106.563 70.3199 106.602 70.2029 106.651C70.0838 106.7 69.9705 106.761 69.865 106.831C69.7576 106.901 69.658 106.983 69.5682 107.073C69.4783 107.163 69.3963 107.263 69.326 107.37C69.2557 107.476 69.1951 107.589 69.1463 107.708C69.0975 107.825 69.0584 107.948 69.035 108.073C69.0096 108.198 68.9961 108.327 68.9961 108.454C68.9961 108.581 69.0096 108.71 69.035 108.835C69.0584 108.96 69.0975 109.083 69.1463 109.2C69.1953 109.319 69.2557 109.433 69.3262 109.538Z" fill="black"/>
</svg>
