<svg width="24" height="24" viewBox="0 0 24 24" fill="none" xmlns="http://www.w3.org/2000/svg">
<path d="M20.4843 3.51349C15.7973 -1.17216 8.19914 -1.17103 3.51349 3.51607C-1.17216 8.20317 -1.17103 15.8012 3.51607 20.4869C8.20317 25.1725 15.8012 25.1714 20.4869 20.4843C22.7372 18.2333 24.0011 15.1805 24.0004 11.9976C23.9997 8.81522 22.735 5.76343 20.4843 3.51349ZM18.1739 16.7161C18.1733 16.7166 18.1728 16.7172 18.1723 16.7177V16.7137L17.5642 17.3177C16.7779 18.114 15.6327 18.4416 14.5442 18.1817C13.4475 17.8882 12.405 17.4209 11.4562 16.7977C10.5746 16.2343 9.75766 15.5757 9.02012 14.8337C8.3415 14.16 7.73183 13.4203 7.20008 12.6257C6.61844 11.7705 6.15808 10.839 5.83206 9.8576C5.45832 8.70465 5.76802 7.43952 6.63208 6.58957L7.34408 5.87757C7.54203 5.67873 7.86369 5.67802 8.06249 5.87598C8.06301 5.87649 8.06357 5.87701 8.06409 5.87757L10.3121 8.12559C10.511 8.32355 10.5117 8.64521 10.3137 8.84401C10.3132 8.84452 10.3127 8.84504 10.3121 8.8456L8.99209 10.1656C8.61333 10.5402 8.5657 11.1356 8.8801 11.5657C9.35753 12.2209 9.88586 12.8374 10.4601 13.4097C11.1004 14.0527 11.7965 14.6377 12.5402 15.1577C12.9699 15.4575 13.5524 15.4069 13.9242 15.0377L15.2002 13.7417C15.3981 13.5429 15.7198 13.5422 15.9186 13.7401C15.9191 13.7406 15.9196 13.7412 15.9202 13.7417L18.1722 15.9977C18.3711 16.1957 18.3718 16.5173 18.1739 16.7161Z" fill="white"/>
</svg>
