<svg width="60" height="60" viewBox="0 0 60 60" fill="none" xmlns="http://www.w3.org/2000/svg">
<circle cx="30" cy="30" r="30" fill="white"/>
<path d="M24.4791 40.3125C24.4791 41.8658 23.2199 43.125 21.6666 43.125C20.1132 43.125 18.8541 41.8658 18.8541 40.3125C18.8541 38.7592 20.1132 37.5 21.6666 37.5C23.2199 37.5 24.4791 38.7592 24.4791 40.3125Z" fill="#6448B6"/>
<path d="M43.4375 40.3125C43.4375 41.8658 42.1783 43.125 40.625 43.125C39.0717 43.125 37.8125 41.8658 37.8125 40.3125C37.8125 38.7592 39.0717 37.5 40.625 37.5C42.1783 37.5 43.4375 38.7592 43.4375 40.3125Z" fill="#6448B6"/>
<path d="M41.9418 21.2502H39.902L39.8438 37.4221H47.4762C48.4793 37.1566 49.2188 36.2429 49.2188 35.1565V28.2021L42.4945 21.4788C42.3477 21.3326 42.149 21.2502 41.9418 21.2502Z" fill="#54C991"/>
<path d="M49.2188 28.2021L42.4942 21.4791C42.3477 21.3326 42.149 21.2502 41.9418 21.2502H41.1349V27.3437C41.1349 28.6379 42.1841 29.6874 43.4787 29.6874H49.2188V28.2021Z" fill="white"/>
<path d="M18.8541 40.3125C18.8541 41.8658 17.5949 43.125 16.0416 43.125C14.4882 43.125 13.2291 41.8658 13.2291 40.3125C13.2291 38.7592 14.4882 37.5 16.0416 37.5C17.5949 37.5 18.8541 38.7592 18.8541 40.3125Z" fill="#6448B6"/>
<path d="M20.7812 21.25H30V32.9688H20.7812V21.25Z" fill="#FFBF36"/>
<path d="M13.9062 16.9922V37.5H37.3438V16.9922H13.9062ZM30.3125 32.9688H18.4375V21.0938H30.3125V32.9688Z" fill="#C954AF"/>
<path d="M25.9375 26.25L24.0625 24.4009L22.1875 26.25V21.25H25.9375V26.25Z" fill="white"/>
<path d="M50 35.1566V28.2022C50 27.995 49.9176 27.7963 49.7711 27.6498L43.0466 20.9265C42.7515 20.6314 42.3593 20.4691 41.9418 20.4691H38.125V16.875C38.125 16.4435 37.7753 16.0938 37.3438 16.0938H10.7812C10.3497 16.0938 10 16.4435 10 16.875V37.5C10 37.9315 10.3497 38.2812 10.7812 38.2812H13.0792C12.6813 38.8596 12.4478 39.559 12.4478 40.3125C12.4478 41.066 12.6813 41.7654 13.0792 42.3438H10.7812C10.3497 42.3438 10 42.6935 10 43.125C10 43.5565 10.3497 43.9062 10.7812 43.9062H26.4719C26.9034 43.9062 27.2531 43.5565 27.2531 43.125C27.2531 42.6935 26.9034 42.3438 26.4719 42.3438H24.6292C25.0269 41.7654 25.2606 41.066 25.2606 40.3125C25.2606 39.559 25.0272 38.8596 24.6292 38.2812L37.6624 38.2816C37.2647 38.8596 37.0312 39.5593 37.0312 40.3125C37.0312 41.066 37.2647 41.7654 37.6624 42.3438H32.1442C31.713 42.3438 31.3629 42.6935 31.3629 43.125C31.3629 43.5562 31.713 43.9062 32.1442 43.9062H40.6219H40.625H40.6277H49.2188C49.6503 43.9062 50 43.5562 50 43.125C50 42.6935 49.6503 42.3438 49.2188 42.3438H43.5876C43.9853 41.7654 44.2188 41.066 44.2188 40.3125C44.2188 39.5593 43.9853 38.8596 43.5876 38.2816H46.875C48.598 38.2816 50 36.8796 50 35.1566ZM48.4375 28.9062H45.6363L47.2269 27.3154L48.4375 28.526V28.9062ZM46.1218 26.2106L43.429 28.9038C42.5903 28.8773 41.9162 28.1885 41.9162 27.3438V22.0316H41.9418L46.1218 26.2106ZM40.3537 22.0316V27.3438C40.3537 29.0668 41.7554 30.4688 43.4787 30.4688H48.4375V32.0831H46.0156C45.5841 32.0831 45.2344 32.4332 45.2344 32.8644C45.2344 33.2959 45.5841 33.6456 46.0156 33.6456H48.4375V35.1566C48.4375 36.0181 47.7365 36.7191 46.875 36.7191H38.125V22.0316H40.3537ZM11.5625 17.6562H36.5625V36.7188H11.5625V17.6562ZM14.0103 40.3125C14.0103 39.1925 14.9216 38.2812 16.0416 38.2812C17.1616 38.2812 18.0728 39.1925 18.0728 40.3125C18.0728 41.4325 17.1616 42.3438 16.0416 42.3438C14.9216 42.3438 14.0103 41.4325 14.0103 40.3125ZM23.6978 40.3125C23.6978 41.4325 22.7866 42.3438 21.6666 42.3438C20.5466 42.3438 19.6353 41.4325 19.6353 40.3125C19.6353 39.1925 20.5466 38.2812 21.6666 38.2812C22.7866 38.2812 23.6978 39.1925 23.6978 40.3125ZM42.6562 40.3125C42.6562 41.4316 41.7465 42.3419 40.6281 42.3438H40.6219C39.5035 42.3419 38.5938 41.4316 38.5938 40.3125C38.5938 39.1956 39.5001 38.2864 40.6161 38.2816H40.6342C41.7499 38.2864 42.6562 39.1956 42.6562 40.3125Z" fill="black"/>
<path d="M29.4922 42.3438H29.4821C29.0506 42.3438 28.7009 42.6935 28.7009 43.125C28.7009 43.5565 29.0506 43.9062 29.4821 43.9062H29.4922C29.9237 43.9062 30.2734 43.5565 30.2734 43.125C30.2734 42.6935 29.9237 42.3438 29.4922 42.3438Z" fill="black"/>
<path d="M43.3179 33.6462C43.5236 33.6462 43.725 33.5626 43.8702 33.4171C44.0155 33.2718 44.0991 33.0704 44.0991 32.865C44.0991 32.6587 44.0155 32.457 43.8702 32.3117C43.725 32.1664 43.5236 32.0837 43.3179 32.0837C43.1125 32.0837 42.9111 32.1664 42.7655 32.3117C42.6202 32.4579 42.5366 32.6587 42.5366 32.865C42.5366 33.0704 42.6202 33.2712 42.7655 33.4171C42.9111 33.5626 43.1125 33.6462 43.3179 33.6462Z" fill="black"/>
<path d="M30 33.9062C30.4315 33.9062 30.7812 33.5565 30.7812 33.125V21.25C30.7812 20.8185 30.4315 20.4688 30 20.4688H18.125C17.6935 20.4688 17.3438 20.8185 17.3438 21.25V26.4062H15.8725C15.441 26.4062 15.0912 26.756 15.0912 27.1875C15.0912 27.619 15.441 27.9688 15.8725 27.9688H17.3438V32.3438H13.75C13.3185 32.3438 12.9688 32.6935 12.9688 33.125C12.9688 33.5565 13.3185 33.9062 13.75 33.9062H30ZM25.1562 22.0312V24.3823L24.6109 23.8449C24.4589 23.6948 24.2606 23.62 24.0625 23.62C23.8644 23.62 23.6661 23.6948 23.5141 23.8449L22.9688 24.3823V22.0312H25.1562ZM18.9062 22.0312H21.4062V26.25C21.4062 26.5649 21.5955 26.8491 21.886 26.9708C22.1768 27.0923 22.5119 27.0276 22.7362 26.8063L24.0625 25.4984L25.3891 26.8063C25.538 26.9534 25.7364 27.0312 25.9378 27.0312C26.0391 27.0312 26.1417 27.0114 26.239 26.9708C26.5295 26.8494 26.7188 26.5649 26.7188 26.25V22.0312H29.2188V32.3438H18.9062V22.0312Z" fill="black"/>
<path d="M25.3711 30.7812H27.5586C27.9901 30.7812 28.3398 30.4315 28.3398 30C28.3398 29.5685 27.9901 29.2188 27.5586 29.2188H25.3711C24.9396 29.2188 24.5898 29.5685 24.5898 30C24.5898 30.4315 24.9396 30.7812 25.3711 30.7812Z" fill="black"/>
</svg>
