<svg width="60" height="60" viewBox="0 0 60 60" fill="none" xmlns="http://www.w3.org/2000/svg">
<circle cx="30" cy="30" r="30" fill="white"/>
<path d="M48.1824 46.2983V29.529L19.3033 29.3794V46.2983C19.3033 46.8186 19.7251 47.2404 20.2454 47.2404H47.2404C47.7606 47.2404 48.1824 46.8186 48.1824 46.2983Z" fill="#54C991"/>
<path d="M19.3033 24.4809V31.8932L27.1738 33.8795L32.8263 33.8943L49.2188 29.8435V23.8062C49.2188 22.3729 47.8609 21.2109 46.1858 21.2109H23.1248C21.0142 21.2109 19.3033 22.675 19.3033 24.4809Z" fill="#54C991"/>
<path d="M32.8258 31.6016H27.1734V36.9711H32.8258V31.6016Z" fill="white"/>
<path d="M32.826 31.6016H29.7133V36.9711H32.826V31.6016Z" fill="#FFBF36"/>
<path d="M14.8457 41.3052H14.5519V46.4592C14.5519 46.8906 14.9017 47.2404 15.3332 47.2404H17.7528V44.2123C17.7527 42.6067 16.4512 41.3052 14.8457 41.3052Z" fill="#FFBF36"/>
<path d="M47.9618 41.3052H45.1543C43.5487 41.3052 42.2473 42.6067 42.2473 44.2122V47.2403H45.0548V44.2122C45.0548 42.6067 46.3562 41.3052 47.9618 41.3052Z" fill="white"/>
<path d="M48.1824 46.4592V41.3052H47.9618C46.3562 41.3052 45.0547 42.6067 45.0547 44.2122V47.2403H47.4012C47.8326 47.2404 48.1824 46.8906 48.1824 46.4592Z" fill="#FFBF36"/>
<path d="M23.4053 16.6499C23.8368 16.6499 24.1866 16.3002 24.1866 15.8687V14.6439C24.1866 14.0358 24.6813 13.541 25.2895 13.541H34.8047C35.4129 13.541 35.9076 14.0358 35.9076 14.6439V15.8687C35.9076 16.3002 36.2574 16.6499 36.6889 16.6499C37.1204 16.6499 37.4701 16.3002 37.4701 15.8687V14.6439C37.4701 13.1741 36.2744 11.9785 34.8047 11.9785H25.2895C23.8198 11.9785 22.6241 13.1742 22.6241 14.6439V15.8687C22.6241 16.3002 22.9738 16.6499 23.4053 16.6499Z" fill="black"/>
<path d="M46.1858 18.2905H13.8142C11.711 18.2905 10 20.0015 10 22.1047V29.0423C10 29.3887 10.228 29.6937 10.5602 29.7917L11.0362 29.9321V46.2983C11.0362 47.2486 11.8094 48.0217 12.7596 48.0217H47.2403C48.1906 48.0217 48.9637 47.2486 48.9637 46.2983V30.0472L49.4355 29.9109C49.7698 29.8144 50 29.5083 50 29.1604V22.1047C50 20.0015 48.289 18.2905 46.1858 18.2905ZM11.5625 22.1047C11.5625 20.8631 12.5727 19.853 13.8142 19.853H16.9715V22.5576C16.9715 22.989 17.3212 23.3388 17.7527 23.3388C18.1842 23.3388 18.534 22.989 18.534 22.5576V19.853H41.1834V22.5576C41.1834 22.989 41.5331 23.3388 41.9646 23.3388C42.3961 23.3388 42.7459 22.989 42.7459 22.5576V19.853H46.1858C47.4274 19.853 48.4375 20.8632 48.4375 22.1047V28.5728L33.6075 32.8555V31.6016C33.6075 31.1701 33.2577 30.8204 32.8263 30.8204H27.1737C26.7422 30.8204 26.3924 31.1701 26.3924 31.6016V32.8321L11.5625 28.4583V22.1047ZM27.9549 33.8694C27.9549 33.8672 27.9549 33.8651 27.9549 33.863V32.3829H32.045V36.1903H27.9549V33.8694ZM12.5988 46.2983V42.0865H14.8457C16.0179 42.0865 16.9715 43.0401 16.9715 44.2122V46.4591H12.7596C12.6709 46.4591 12.5988 46.387 12.5988 46.2983ZM47.2403 46.4591H43.0284V44.2122C43.0284 43.0401 43.9821 42.0865 45.1542 42.0865H47.4011V46.2983C47.4012 46.387 47.3291 46.4591 47.2403 46.4591ZM47.4012 40.524H45.1543C43.1205 40.524 41.466 42.1786 41.466 44.2122V46.4591H18.534V44.2122C18.534 42.1785 16.8794 40.524 14.8457 40.524H12.5988V30.3929L26.3925 34.461V36.9715C26.3925 37.403 26.7423 37.7528 27.1737 37.7528H32.8263C33.2578 37.7528 33.6076 37.403 33.6076 36.9715V34.4819L47.4012 30.4984V40.5239H47.4012V40.524Z" fill="black"/>
<path d="M41.9648 26.353C42.3963 26.353 42.7461 26.0032 42.7461 25.5718C42.7461 25.1403 42.3963 24.7905 41.9648 24.7905C41.5334 24.7905 41.1836 25.1403 41.1836 25.5718C41.1836 26.0032 41.5334 26.353 41.9648 26.353Z" fill="black"/>
<path d="M17.7523 26.353C18.1838 26.353 18.5336 26.0032 18.5336 25.5718C18.5336 25.1403 18.1838 24.7905 17.7523 24.7905C17.3209 24.7905 16.9711 25.1403 16.9711 25.5718C16.9711 26.0032 17.3209 26.353 17.7523 26.353Z" fill="black"/>
</svg>
