<svg width="60" height="60" viewBox="0 0 60 60" fill="none" xmlns="http://www.w3.org/2000/svg">
<circle cx="30" cy="30" r="30" fill="white"/>
<path d="M19.1382 40.1562H29.0576C28.8885 40.0412 28.7274 39.9146 28.5757 39.7781C27.2668 39.1931 26.3544 37.8806 26.3544 36.3541C26.3544 34.7348 27.381 33.3566 28.8187 32.8317C28.8965 32.771 28.9758 32.7121 29.0579 32.6562H18.9075C20.1743 33.4598 21.0156 34.8734 21.0156 36.4844C21.0156 37.9956 20.2753 39.3329 19.1382 40.1562Z" fill="#6448B6"/>
<path d="M48.9581 36.4322C48.9581 38.302 47.4426 39.8175 45.5728 39.8175C43.7033 39.8175 42.1875 38.302 42.1875 36.4322C42.1875 34.5627 43.7033 33.0469 45.5728 33.0469C47.4426 33.0469 48.9581 34.5627 48.9581 36.4322Z" fill="#C954AF"/>
<path d="M33.4375 36.3804C33.4375 38.2499 31.9217 39.7657 30.0522 39.7657C28.1824 39.7657 26.6669 38.2499 26.6669 36.3804C26.6669 34.5106 28.1824 32.9951 30.0522 32.9951C31.9217 32.9951 33.4375 34.5106 33.4375 36.3804Z" fill="#C954AF"/>
<path d="M17.9688 36.4322C17.9688 38.302 16.4529 39.8175 14.5834 39.8175C12.7136 39.8175 11.1981 38.302 11.1981 36.4322C11.1981 34.5627 12.7136 33.0469 14.5834 33.0469C16.4529 33.0469 17.9688 34.5627 17.9688 36.4322Z" fill="#C954AF"/>
<path d="M34.1455 40.1562H43.9038C42.3654 39.552 41.2759 38.0548 41.2759 36.3022C41.2759 34.726 42.1567 33.3557 43.4528 32.6562H34.1455C35.3448 33.4714 36.1328 34.8468 36.1328 36.4062C36.1328 37.9657 35.3448 39.3411 34.1455 40.1562Z" fill="#6448B6"/>
<path d="M16.9791 20.8853H26.4062V32.6562H16.9791V20.8853Z" fill="#FFBF36"/>
<path d="M22.3438 25.7812L20.4688 23.9322L18.5938 25.7812V20.7812H22.3438V25.7812Z" fill="white"/>
<path d="M35.6509 20.7812H45V32.6562H35.6509V20.7812Z" fill="#FFBF36"/>
<path d="M40.9375 25.7812L39.0625 23.9322L37.1875 25.7812V20.7812H40.9375V25.7812Z" fill="white"/>
<path d="M45.7812 31.8869V20.7812C45.7812 20.3497 45.4315 20 45 20H33.125C32.6935 20 32.3438 20.3497 32.3438 20.7812V23.5547C32.3438 23.9862 32.6935 24.3359 33.125 24.3359C33.5565 24.3359 33.9062 23.9862 33.9062 23.5547V21.5625H36.4062V25.7812C36.4062 26.0962 36.5955 26.3803 36.886 26.5021C37.1768 26.6235 37.5119 26.5585 37.7362 26.3376L39.0625 25.0296L40.3891 26.3376C40.538 26.4847 40.7364 26.5625 40.9378 26.5625C41.0391 26.5625 41.1417 26.5427 41.239 26.5021C41.5295 26.3806 41.7188 26.0962 41.7188 25.7812V21.5625H44.2188V31.875H33.9062V29.9609C33.9062 29.5294 33.5565 29.1797 33.125 29.1797C32.6935 29.1797 32.3438 29.5294 32.3438 29.9609V31.875H27.1875V20.7812C27.1875 20.3497 26.8378 20 26.4062 20H14.5312C14.0997 20 13.75 20.3497 13.75 20.7812V23.2812C13.75 23.7128 14.0997 24.0625 14.5312 24.0625C14.9628 24.0625 15.3125 23.7128 15.3125 23.2812V21.5625H17.8125V25.7812C17.8125 26.0962 18.0017 26.3803 18.2922 26.5021C18.5831 26.6235 18.9182 26.5585 19.1425 26.3376L20.4688 25.0296L21.7953 26.3376C21.9443 26.4847 22.1426 26.5625 22.3441 26.5625C22.4454 26.5625 22.5479 26.5427 22.6453 26.5021C22.9358 26.3806 23.125 26.0962 23.125 25.7812V21.5625H25.625V31.875H15.3125V29.8438C15.3125 29.4122 14.9628 29.0625 14.5312 29.0625C14.0997 29.0625 13.75 29.4122 13.75 29.8438V31.944C11.6226 32.3154 10 34.1742 10 36.4062C10 38.9047 12.0328 40.9375 14.5312 40.9375H45.4688C47.9672 40.9375 50 38.9047 50 36.4062C50 34.0128 48.1345 32.0483 45.7812 31.8869ZM40.1562 23.9136L39.6109 23.3762C39.4589 23.226 39.2606 23.1512 39.0625 23.1512C38.8644 23.1512 38.6661 23.226 38.5141 23.3762L37.9688 23.9136V21.5625H40.1562V23.9136ZM21.5625 23.9136L21.0172 23.3762C20.8652 23.226 20.6668 23.1512 20.4688 23.1512C20.2707 23.1512 20.0723 23.226 19.9203 23.3762L19.375 23.9136V21.5625H21.5625V23.9136ZM42.0499 33.4375C41.358 34.2334 40.9375 35.2713 40.9375 36.4062C40.9375 37.5412 41.358 38.5791 42.0499 39.375H33.4189C34.1107 38.5791 34.5312 37.5412 34.5312 36.4062C34.5312 35.2713 34.1107 34.2334 33.4189 33.4375H42.0499ZM27.0312 36.4062C27.0312 34.7693 28.363 33.4375 30 33.4375C31.637 33.4375 32.9688 34.7693 32.9688 36.4062C32.9688 38.0432 31.637 39.375 30 39.375C28.363 39.375 27.0312 38.0432 27.0312 36.4062ZM26.4062 33.4375H26.5811C25.8893 34.2334 25.4688 35.2713 25.4688 36.4062C25.4688 37.5412 25.8893 38.5791 26.5811 39.375H17.9501C18.642 38.5791 19.0625 37.5412 19.0625 36.4062C19.0625 35.2713 18.642 34.2334 17.9501 33.4375H26.4062ZM11.5625 36.4062C11.5625 34.7693 12.8943 33.4375 14.5312 33.4375C16.1682 33.4375 17.5 34.7693 17.5 36.4062C17.5 38.0432 16.1682 39.375 14.5312 39.375C12.8943 39.375 11.5625 38.0432 11.5625 36.4062ZM45.4688 39.375C43.8318 39.375 42.5 38.0432 42.5 36.4062C42.5 34.7693 43.8318 33.4375 45.4688 33.4375C47.1057 33.4375 48.4375 34.7693 48.4375 36.4062C48.4375 38.0432 47.1057 39.375 45.4688 39.375Z" fill="black"/>
<path d="M30 35.625C29.7946 35.625 29.5929 35.7086 29.4476 35.8539C29.3024 35.9991 29.2188 36.2009 29.2188 36.4062C29.2188 36.6116 29.3024 36.8134 29.4476 36.9586C29.5929 37.1039 29.7946 37.1875 30 37.1875C30.2054 37.1875 30.4071 37.1039 30.5524 36.9586C30.6976 36.8134 30.7812 36.6116 30.7812 36.4062C30.7812 36.2009 30.6976 35.9991 30.5524 35.8539C30.4071 35.7086 30.2054 35.625 30 35.625Z" fill="black"/>
<path d="M45.4688 35.625C45.2634 35.625 45.0616 35.7086 44.9164 35.8539C44.7711 35.9991 44.6875 36.2009 44.6875 36.4062C44.6875 36.6116 44.7711 36.8134 44.9164 36.9586C45.0616 37.1039 45.2634 37.1875 45.4688 37.1875C45.6741 37.1875 45.8759 37.1039 46.0211 36.9586C46.1664 36.8134 46.25 36.6116 46.25 36.4062C46.25 36.2009 46.1664 35.9991 46.0211 35.8539C45.8759 35.7086 45.6741 35.625 45.4688 35.625Z" fill="black"/>
<path d="M15.0836 36.9586C15.2289 36.8134 15.3125 36.6116 15.3125 36.4062C15.3125 36.2009 15.2289 35.9991 15.0836 35.8539C14.9384 35.7086 14.7366 35.625 14.5312 35.625C14.3259 35.625 14.1241 35.7086 13.9789 35.8539C13.8336 35.9991 13.75 36.2009 13.75 36.4062C13.75 36.6116 13.8336 36.8134 13.9789 36.9586C14.1241 37.1039 14.3259 37.1875 14.5312 37.1875C14.7366 37.1875 14.9384 37.1039 15.0836 36.9586Z" fill="black"/>
<path d="M14.5312 27.5C14.7366 27.5 14.9384 27.4164 15.0836 27.2711C15.2289 27.1259 15.3125 26.9241 15.3125 26.7188C15.3125 26.5134 15.2289 26.3116 15.0836 26.1664C14.9384 26.0211 14.7366 25.9375 14.5312 25.9375C14.3259 25.9375 14.1241 26.0211 13.9789 26.1664C13.8336 26.3116 13.75 26.5134 13.75 26.7188C13.75 26.9241 13.8336 27.1259 13.9789 27.2711C14.1241 27.4164 14.3259 27.5 14.5312 27.5Z" fill="black"/>
<path d="M23.9648 30.3125C24.3964 30.3125 24.7461 29.9628 24.7461 29.5312C24.7461 29.0997 24.3964 28.75 23.9648 28.75H21.7773C21.3458 28.75 20.9961 29.0997 20.9961 29.5312C20.9961 29.9628 21.3458 30.3125 21.7773 30.3125H23.9648Z" fill="black"/>
<path d="M33.125 27.5C33.3304 27.5 33.5321 27.4164 33.6774 27.2711C33.8226 27.1259 33.9062 26.9241 33.9062 26.7188C33.9062 26.5134 33.8226 26.3116 33.6774 26.1664C33.5321 26.0211 33.3304 25.9375 33.125 25.9375C32.9196 25.9375 32.7179 26.0211 32.5726 26.1664C32.4274 26.3116 32.3438 26.5134 32.3438 26.7188C32.3438 26.9241 32.4274 27.1259 32.5726 27.2711C32.7179 27.4164 32.9196 27.5 33.125 27.5Z" fill="black"/>
<path d="M42.5586 30.3125C42.9901 30.3125 43.3398 29.9628 43.3398 29.5312C43.3398 29.0997 42.9901 28.75 42.5586 28.75H40.3711C39.9396 28.75 39.5898 29.0997 39.5898 29.5312C39.5898 29.9628 39.9396 30.3125 40.3711 30.3125H42.5586Z" fill="black"/>
</svg>
