<svg width="60" height="60" viewBox="0 0 60 60" fill="none" xmlns="http://www.w3.org/2000/svg">
<circle cx="30" cy="30" r="30" fill="white"/>
<path d="M35.9912 30.9019H28.2689V42.1191H35.9912V30.9019Z" fill="#FFBF36"/>
<path d="M47.5725 46.9259V45.1036C47.5725 42.0229 45.4784 39.3423 42.4931 38.5818C41.8009 38.4055 41.0747 38.2362 40.3168 38.0784L37.9745 37.5996L33.15 38.9477L30 41.7244L25.9918 38.0519C25.1738 38.2202 24.3918 38.4016 23.6496 38.5912C20.6792 39.3504 18.6081 42.0371 18.6081 45.103V46.9257C18.6081 48.1918 19.6344 49.2181 20.9004 49.2181H45.2801C46.5461 49.2182 47.5725 48.1919 47.5725 46.9259Z" fill="#54C991"/>
<path d="M25.7845 37.219L23.9833 35.2939L22.2139 37.6173L25.3203 44.701L26.9949 43.6359L24.7669 38.5551L25.7845 37.219Z" fill="white"/>
<path d="M25.7845 37.2188L24.7669 38.5548L26.9949 43.6356L30 41.7243L25.7845 37.2188Z" fill="#6448B6"/>
<path d="M36.0166 34.9119L30 41.7244L31.8791 42.9574L37.2875 36.8336L36.0166 34.9119Z" fill="white"/>
<path d="M37.9744 37.8726L37.2875 36.8337L31.8791 42.9575L34.5363 44.7011L37.9744 37.8726Z" fill="#6448B6"/>
<path d="M27.7116 13.3638C26.4106 13.3638 25.3559 14.4185 25.3559 15.7195H24.4009C22.5483 15.7195 21.0465 17.2214 21.0465 19.0739V26.411C21.0465 27.0484 21.1284 27.6541 21.2914 28.2025C21.5561 28.2598 21.8394 28.2903 22.1417 28.2903H25.5113V18.4216H37.7607C39.7863 18.4216 41.4285 16.7795 41.4285 14.7538V13.3638H27.7116Z" fill="#C954AF"/>
<path d="M25.9785 26.1974V22.0962C25.9785 20.0669 27.6235 18.4219 29.6529 18.4219H25.3657C23.3364 18.4219 21.6913 20.0669 21.6913 22.0962V26.1974C21.6913 30.6939 25.3363 34.339 29.8329 34.339C30.5748 34.339 31.2934 34.2392 31.9765 34.0532C28.52 33.1123 25.9785 29.9518 25.9785 26.1974Z" fill="white"/>
<path d="M37.9744 26.1972V21.3676V20.3648V18.4216H29.6527C27.6235 18.4216 25.9783 20.0667 25.9783 22.096V26.1971C25.9783 29.9517 28.5199 33.112 31.9763 34.053C35.4329 33.1121 37.9744 29.9517 37.9744 26.1972Z" fill="#FFBF36"/>
<path d="M31.0771 42.4311L30 41.7244L28.3163 42.7952L27.2543 49.2181H29.4425L30.5045 42.7952L31.0771 42.4311Z" fill="white"/>
<path d="M31.0771 42.4309L30.5045 42.795L29.4425 49.2179H33.1276L31.6936 42.8354L31.0771 42.4309Z" fill="#FFBF36"/>
<path d="M26.7363 24.1932C27.1856 24.1932 27.5498 23.829 27.5498 23.3797C27.5498 22.9304 27.1856 22.5662 26.7363 22.5662C26.287 22.5662 25.9228 22.9304 25.9228 23.3797C25.9228 23.829 26.287 24.1932 26.7363 24.1932Z" fill="black"/>
<path d="M32.8846 24.1932C33.3339 24.1932 33.6981 23.829 33.6981 23.3797C33.6981 22.9304 33.3339 22.5662 32.8846 22.5662C32.4353 22.5662 32.0711 22.9304 32.0711 23.3797C32.0711 23.829 32.4353 24.1932 32.8846 24.1932Z" fill="black"/>
<path d="M42.6859 37.8246C41.1758 37.4399 39.8354 37.13 38.2522 36.8758L36.6686 34.4809C36.5344 34.2781 36.3136 34.1493 36.071 34.1324C35.8287 34.1148 35.5919 34.2124 35.4309 34.3947L29.9833 40.5629L24.5539 34.7601C24.3967 34.5921 24.1739 34.5029 23.9436 34.5136C23.7139 34.5252 23.5008 34.6376 23.3614 34.8206L21.8033 36.8665C20.1773 37.1255 18.8121 37.4415 17.2754 37.8342C13.9608 38.6814 11.6459 41.6705 11.6459 45.1033V46.926C11.6459 48.621 13.0248 49.9999 14.7198 49.9999H27.2524C27.2534 49.9999 27.2543 50 27.2552 50C27.2561 50 27.257 49.9999 27.2578 49.9999H33.1235C33.1247 49.9999 33.1259 50.0001 33.127 50.0001C33.128 50.0001 33.1289 49.9999 33.1298 49.9999H45.2801C46.9751 49.9999 48.354 48.621 48.354 46.926V45.1037C48.354 41.6679 46.0231 38.6746 42.6859 37.8246ZM35.9273 36.1938L37.0727 37.9258L34.2324 43.567L31.1827 41.566L35.9273 36.1938ZM29.9934 42.655L31.0005 43.3158L32.1511 48.4369H28.1756L29.0305 43.2675L29.9934 42.655ZM24.0446 36.5035L28.7857 41.5707L25.67 43.5525L23.1145 37.7249L24.0446 36.5035ZM13.209 46.926V45.1033C13.209 42.3852 15.0403 40.0187 17.6625 39.3486C19.0548 38.9927 20.2999 38.7022 21.731 38.4622L24.6045 45.015C24.696 45.2239 24.8744 45.3823 25.0926 45.4487C25.3108 45.5151 25.5471 45.4828 25.7396 45.3606L27.2598 44.3937L26.5912 48.4369H14.7198C13.8868 48.4368 13.209 47.7591 13.209 46.926ZM46.791 46.926C46.791 47.7591 46.1132 48.4369 45.2801 48.4369H33.7531L32.8794 44.5487L34.1076 45.3546C34.2363 45.4389 34.3855 45.4827 34.5364 45.4827C34.604 45.4827 34.6721 45.4739 34.7387 45.456C34.9539 45.3984 35.1343 45.2516 35.2344 45.0526L38.53 38.5072C39.8363 38.7354 41.0027 39.0087 42.3001 39.3393C44.9442 40.0128 46.7909 42.3832 46.7909 45.1037L46.791 46.926Z" fill="black"/>
<path d="M21.3643 29.0099C22.5452 32.5562 25.8951 35.1204 29.8329 35.1204C34.7531 35.1204 38.756 31.1176 38.756 26.1974V19.0897C40.7315 18.6363 42.21 16.8652 42.21 14.754V13.7037C42.21 13.272 41.8601 12.9221 41.4285 12.9221C40.9968 12.9221 40.6469 13.272 40.6469 13.7037V14.754C40.6469 16.3455 39.3522 17.6403 37.7607 17.6403H25.5114C25.4867 17.6403 25.4625 17.6418 25.4385 17.644C25.4146 17.6417 25.3903 17.6403 25.3657 17.6403C22.9088 17.6403 20.9098 19.6392 20.9098 22.0962V26.1974C20.9098 26.5664 20.9328 26.93 20.9764 27.2874C19.3881 26.6049 19.2458 24.5367 19.2458 23.8289V16.4916C19.2458 15.0729 20.4 13.9187 21.8186 13.9187H22.7736C23.2053 13.9187 23.5552 13.5688 23.5552 13.1372C23.5552 12.2692 24.2614 11.563 25.1294 11.563H38.0051C38.4367 11.563 38.7866 11.213 38.7866 10.7814C38.7866 10.3498 38.4366 10 38.005 10H25.1293C23.6692 10 22.4388 11.0028 22.0906 12.3558H21.8186C19.5381 12.3558 17.6827 14.2111 17.6827 16.4917V23.8288C17.6826 26.6749 19.1092 28.6463 21.3643 29.0099ZM22.4728 22.0961C22.4728 20.501 23.7705 19.2032 25.3656 19.2032C25.3903 19.2032 25.4145 19.2018 25.4385 19.1996C25.4624 19.2018 25.4867 19.2032 25.5113 19.2032H37.1929V26.1973C37.1929 30.2556 33.8912 33.5573 29.8328 33.5573C25.7745 33.5573 22.4728 30.2556 22.4728 26.1973V22.0961Z" fill="black"/>
<path d="M29.9919 30.6714C31.0701 30.6714 32.0838 30.2515 32.8462 29.4891C33.1514 29.184 33.1514 28.6891 32.8462 28.3838C32.5411 28.0787 32.0462 28.0787 31.7409 28.3838C31.2738 28.8511 30.6525 29.1084 29.9918 29.1084C29.2978 29.1084 28.6314 28.8141 28.1635 28.3008C27.8727 27.982 27.3784 27.9591 27.0594 28.2499C26.7405 28.5408 26.7177 29.0351 27.0085 29.354C27.772 30.1912 28.8594 30.6714 29.9919 30.6714Z" fill="black"/>
<path d="M41.4282 11.5631C41.8599 11.5631 42.2098 11.2132 42.2098 10.7816C42.2098 10.3499 41.8599 10 41.4282 10C40.9966 10 40.6467 10.3499 40.6467 10.7816C40.6467 11.2132 40.9966 11.5631 41.4282 11.5631Z" fill="black"/>
</svg>
