<svg width="100" height="100" viewBox="0 0 100 100" fill="none" xmlns="http://www.w3.org/2000/svg">
<path d="M92.2496 61.001C95.5746 60.6077 98.0468 58.2174 98.0468 55.3965V44.6014C98.0468 41.7803 95.5742 39.3901 92.2494 38.9969L86.6427 38.334C85.9806 36.2532 85.147 34.2491 84.1572 32.3387L87.6539 27.9038C89.7265 25.2749 89.7845 21.8364 87.79 19.8417L80.1566 12.2083C78.1619 10.2135 74.7232 10.2717 72.0943 12.3448L67.6597 15.8418C65.7492 14.852 63.7451 14.0184 61.6642 13.3567L61.0009 7.75024C60.9689 7.48052 60.9226 7.21704 60.8652 6.95942C60.7334 6.95825 60.6019 6.95435 60.4699 6.95435C52.3892 6.95435 44.8301 9.18286 38.3697 13.0559L38.3342 13.3573C38.0017 13.4629 37.6722 13.5747 37.3437 13.6891C25.367 21.3329 17.4242 34.7385 17.4242 50C17.4242 65.2616 25.367 78.6672 37.3437 86.3112C37.672 86.4256 38.0017 86.5372 38.334 86.643L38.3695 86.9444C44.8301 90.8174 52.3892 93.0459 60.4697 93.0459C60.6019 93.0459 60.7332 93.042 60.865 93.0409C60.9224 92.7832 60.9687 92.5198 61.0008 92.25L61.664 86.6438C63.7455 85.9817 65.7502 85.1479 67.6613 84.1577L72.0961 87.6543C74.7252 89.7272 78.1634 89.7852 80.1582 87.7905L87.7916 80.1571C89.7863 78.1623 89.7281 74.7237 87.6551 72.0946L84.1582 67.6598C85.1478 65.7493 85.9814 63.7452 86.6433 61.6641L92.2496 61.001ZM50 67.6477C40.2535 67.6477 32.3523 59.7465 32.3523 50C32.3523 40.2536 40.2535 32.3524 50 32.3524C59.7467 32.3524 67.6476 40.2536 67.6476 50C67.6476 59.7465 59.7467 67.6477 50 67.6477Z" fill="#6448B6"/>
<path d="M55.3965 100H44.6014C40.8074 100 37.5643 96.7666 37.0572 92.4787L36.5396 88.1004C35.192 87.6242 33.8662 87.0744 32.576 86.4572L29.1131 89.1875C25.723 91.8604 21.1434 91.8537 18.4605 89.1711L10.8273 81.5379C8.14453 78.8553 8.1377 74.2754 10.8111 70.885L13.5418 67.4221C12.925 66.1326 12.3752 64.8064 11.899 63.4584L7.5207 62.9406C3.2332 62.4334 0 59.1902 0 55.3965V44.6014C0 40.8076 3.2334 37.5643 7.52109 37.0572L11.8996 36.5395C12.376 35.1916 12.9258 33.8654 13.5428 32.576L10.8125 29.1129C8.13926 25.7227 8.14648 21.143 10.8289 18.4604L18.4621 10.8271C21.1449 8.14434 25.7246 8.1377 29.115 10.8109L32.5779 13.5416C33.8668 12.925 35.1922 12.3756 36.5396 11.8994L37.0572 7.52109C37.5643 3.2334 40.8076 0 44.6014 0H55.3965C59.19 0 62.4332 3.2332 62.9406 7.5207L63.4584 11.899C64.8063 12.3752 66.1324 12.925 67.4221 13.542L70.885 10.8113C74.2758 8.13789 78.8555 8.14512 81.5379 10.8275L89.1713 18.4609C91.8533 21.1434 91.8607 25.723 89.1879 29.1135L86.4574 32.5766C87.074 33.8658 87.6238 35.1918 88.1004 36.54L92.4787 37.0578H92.4789C96.7666 37.5645 100 40.8076 100 44.6014V55.3965C100 59.1902 96.7666 62.4334 92.4791 62.9406L88.101 63.4584C87.6248 64.8064 87.075 66.1326 86.4582 67.4221L89.1889 70.8852C91.8623 74.2756 91.8553 78.8555 89.1725 81.5379L81.5395 89.1711C78.8566 91.8535 74.277 91.8605 70.8869 89.1875L67.424 86.4572C66.1342 87.0744 64.8074 87.6246 63.4584 88.101L62.9406 92.4793C62.4332 96.7668 59.19 100 55.3965 100ZM32.3389 82.2043C32.6453 82.2043 32.9535 82.2764 33.2369 82.4232C35.0586 83.3668 36.9729 84.1604 38.9262 84.7816C39.6566 85.0139 40.1836 85.6522 40.2736 86.4135L40.9365 92.0201C41.2111 94.3424 42.7867 96.0936 44.6016 96.0936H55.3967C57.2111 96.0936 58.7867 94.3424 59.0617 92.0201L59.725 86.4139C59.815 85.6527 60.342 85.0145 61.0725 84.7822C63.0279 84.1602 64.9424 83.3666 66.7633 82.4232C67.4447 82.0699 68.2689 82.149 68.8711 82.6236L73.3059 86.1201C75.1422 87.568 77.4945 87.692 78.7777 86.409L86.4109 78.7758C87.6941 77.4928 87.5701 75.1402 86.1221 73.3037L82.6252 68.8689C82.1502 68.2668 82.0719 67.4422 82.4248 66.7613C83.3678 64.9408 84.1611 63.0268 84.7828 61.0721C85.015 60.3416 85.6533 59.8147 86.4145 59.7246L92.0207 59.0613C94.3426 58.7867 96.0938 57.2111 96.0938 55.3965V44.6014C96.0938 42.7865 94.3424 41.2111 92.0201 40.9363H92.0203L86.4137 40.2734C85.6523 40.1836 85.0141 39.6564 84.7818 38.926C84.1598 36.9709 83.3664 35.0568 82.4234 33.2371C82.0705 32.5561 82.149 31.7316 82.6238 31.1293L86.1205 26.6943C87.568 24.858 87.6924 22.5057 86.4094 21.2225L78.776 13.5893C77.493 12.3059 75.1406 12.4307 73.3039 13.8783L68.8691 17.3754C68.2668 17.8504 67.4418 17.9287 66.7613 17.5758C64.9406 16.6326 63.0264 15.8391 61.0723 15.2178C60.3418 14.9855 59.8147 14.3473 59.7246 13.5859L59.0613 7.97949C58.7865 5.65742 57.2109 3.90625 55.3965 3.90625H44.6014C42.7865 3.90625 41.2111 5.65762 40.9363 7.97988L40.2734 13.5863C40.1834 14.3477 39.6564 14.9859 38.926 15.2182C36.9719 15.8398 35.0582 16.633 33.2385 17.5758C32.558 17.9289 31.7332 17.8504 31.1307 17.3754L26.6959 13.8783C24.8598 12.4303 22.507 12.3059 21.224 13.5893L13.591 21.2227C12.3078 22.5059 12.4318 24.8582 13.8799 26.6945L17.3764 31.1295C17.8514 31.7316 17.9297 32.5563 17.5768 33.2373C16.6336 35.0578 15.84 36.9719 15.2184 38.9264C14.9861 39.6568 14.3479 40.1838 13.5865 40.2738L7.97988 40.9367C5.65762 41.2111 3.90625 42.7867 3.90625 44.6014V55.3965C3.90625 57.2111 5.65742 58.7867 7.97949 59.0615L13.5859 59.7248C14.3471 59.8148 14.9854 60.3418 15.2176 61.0723C15.8395 63.027 16.6326 64.941 17.5756 66.7615C17.9285 67.4424 17.85 68.267 17.3752 68.8691L13.8783 73.3039C12.4303 75.1402 12.3059 77.4926 13.5893 78.776L21.2227 86.4092C22.5057 87.6926 24.858 87.5682 26.6945 86.1203L31.1293 82.6238C31.4811 82.3463 31.9084 82.2043 32.3389 82.2043Z" fill="black"/>
<path d="M50 69.6007C39.1919 69.6007 30.3992 60.8078 30.3992 50C30.3992 39.1921 39.1921 30.3992 50 30.3992C60.8078 30.3992 69.6007 39.1921 69.6007 50C69.6007 60.808 60.808 69.6007 50 69.6007ZM50 34.3054C41.3459 34.3054 34.3054 41.3459 34.3054 50C34.3054 58.6541 41.346 65.6945 50 65.6945C58.6539 65.6945 65.6945 58.6539 65.6945 50C65.6945 41.346 58.6541 34.3054 50 34.3054Z" fill="black"/>
<path d="M58.3873 78.888C57.5545 78.888 56.7832 78.3513 56.5229 77.5144C56.2024 76.4845 56.778 75.3898 57.8079 75.0693C68.8387 71.6384 76.2498 61.5642 76.2498 50.0007C76.2498 48.922 77.1245 48.0476 78.203 48.0476C79.2815 48.0476 80.1561 48.922 80.1561 50.0007C80.1561 56.5634 78.0842 62.8025 74.1645 68.0439C70.3758 73.1099 64.9788 76.9296 58.9678 78.7992C58.775 78.8595 58.5795 78.888 58.3873 78.888Z" fill="black"/>
<path d="M49.5996 79.7344C50.6783 79.7344 51.5527 78.8599 51.5527 77.7812C51.5527 76.7026 50.6783 75.8281 49.5996 75.8281C48.5209 75.8281 47.6465 76.7026 47.6465 77.7812C47.6465 78.8599 48.5209 79.7344 49.5996 79.7344Z" fill="black"/>
</svg>
