<svg width="90" height="100" viewBox="0 0 90 100" fill="none" xmlns="http://www.w3.org/2000/svg">
<path d="M30.7437 1.95312V7.94258H70.8782V87.4979H87.7733V1.95312H30.7437Z" fill="#6448B6"/>
<path d="M59.2564 12.5015H2.22656V98.0462H59.2564V12.5015Z" fill="#FDFFFF"/>
<path d="M35.1684 27.6711C29.5721 29.5266 25.5332 34.7991 25.5332 41.018C25.5332 47.237 29.5719 52.5094 35.1684 54.3649C40.7648 52.5094 44.8035 47.237 44.8035 41.018C44.8035 34.7991 40.765 29.5268 35.1684 27.6711Z" fill="#54C991"/>
<path d="M14.7262 41.0182C14.7262 49.849 21.9106 57.0334 30.7414 57.0334C39.5723 57.0334 46.7567 49.849 46.7567 41.0182C46.7567 32.1873 39.5723 25.0029 30.7414 25.0029C21.9106 25.0029 14.7262 32.1873 14.7262 41.0182ZM42.8504 41.0182C42.8504 47.6951 37.4184 53.1272 30.7414 53.1272C24.0645 53.1272 18.6324 47.6951 18.6324 41.0182C18.6324 34.3412 24.0645 28.9092 30.7414 28.9092C37.4184 28.9092 42.8504 34.3412 42.8504 41.0182Z" fill="black"/>
<path d="M44.9983 65.1284C44.4844 65.1284 43.9807 65.3374 43.6174 65.7007C43.2542 66.064 43.0452 66.5679 43.0452 67.0815C43.0452 67.5952 43.254 68.0991 43.6174 68.4624C43.9809 68.8257 44.4844 69.0347 44.9983 69.0347C45.5139 69.0347 46.0159 68.8257 46.379 68.4624C46.7442 68.0991 46.9514 67.5952 46.9514 67.0815C46.9514 66.5679 46.7442 66.064 46.379 65.7007C46.0159 65.3374 45.5137 65.1284 44.9983 65.1284Z" fill="black"/>
<path d="M16.484 69.0347H37.8225C38.901 69.0347 39.7756 68.1603 39.7756 67.0815C39.7756 66.0028 38.901 65.1284 37.8225 65.1284H16.484C15.4055 65.1284 14.5309 66.0028 14.5309 67.0815C14.5309 68.1603 15.4055 69.0347 16.484 69.0347Z" fill="black"/>
<path d="M44.9989 74.0393H16.484C15.4055 74.0393 14.5309 74.9137 14.5309 75.9924C14.5309 77.0711 15.4055 77.9456 16.484 77.9456H44.9989C46.0774 77.9456 46.952 77.0711 46.952 75.9924C46.952 74.9137 46.0776 74.0393 44.9989 74.0393Z" fill="black"/>
<path d="M44.9989 82.9502H24.1998C23.1213 82.9502 22.2467 83.8246 22.2467 84.9033C22.2467 85.982 23.1213 86.8564 24.1998 86.8564H44.9989C46.0774 86.8564 46.952 85.982 46.952 84.9033C46.952 83.8246 46.0776 82.9502 44.9989 82.9502Z" fill="black"/>
<path d="M16.4834 82.9502C15.9695 82.9502 15.4658 83.1592 15.1025 83.5225C14.7393 83.8857 14.5303 84.3896 14.5303 84.9033C14.5303 85.417 14.7391 85.9209 15.1025 86.2842C15.466 86.6475 15.9695 86.8564 16.4834 86.8564C16.999 86.8564 17.501 86.6475 17.8641 86.2842C18.2293 85.9209 18.4365 85.417 18.4365 84.9033C18.4365 84.3896 18.2293 83.8857 17.8641 83.5225C17.501 83.1592 16.9988 82.9502 16.4834 82.9502Z" fill="black"/>
<path d="M87.7734 0H30.7437C29.6652 0 28.7906 0.874414 28.7906 1.95312V10.5492H2.22656C1.14805 10.5492 0.273438 11.4236 0.273438 12.5023V98.0469C0.273438 99.1256 1.14805 100 2.22656 100H59.2564C60.335 100 61.2096 99.1256 61.2096 98.0469V89.4508H87.7734C88.852 89.4508 89.7266 88.5764 89.7266 87.4977V1.95312C89.7266 0.874414 88.8521 0 87.7734 0ZM57.3031 96.0939H4.17949V14.4553H57.3031V96.0939ZM85.8205 85.5447H61.2094V12.5021C61.2094 11.4234 60.3348 10.549 59.2563 10.549H32.6969V3.90605H85.8205V85.5447Z" fill="black"/>
</svg>
