<svg width="100" height="100" viewBox="0 0 100 100" fill="none" xmlns="http://www.w3.org/2000/svg">
<path d="M98.0957 9.76562C98.0957 5.45117 94.5977 1.95312 90.2832 1.95312H23.6816C19.3672 1.95312 15.8691 5.45117 15.8691 9.76562C15.8691 14.0801 19.3672 17.5781 23.6816 17.5781H90.2832C94.5977 17.5781 98.0957 14.0801 98.0957 9.76562Z" fill="#6448B6"/>
<path d="M22.7051 9.76562C22.7051 13.05 22.7051 82.6902 22.7051 86.3281H34.8145C34.8145 82.6902 34.8145 13.05 34.8145 9.76562H22.7051Z" fill="white"/>
<path d="M34.8145 9.76562C34.8145 13.05 34.8145 82.6902 34.8145 86.3281H61.7676V90.2344C61.7676 94.5488 65.2656 98.0469 69.5801 98.0469C72.0223 98.0469 74.2021 96.9256 75.6348 95.1703C76.7332 93.8246 77.3926 92.1066 77.3926 90.2344C77.3926 87.2533 77.3926 13.7682 77.3926 9.76562H34.8145Z" fill="#FFBF36"/>
<path d="M69.5801 98.0469H18.7988C14.4844 98.0469 10.9863 94.5488 10.9863 90.2344V86.3281H22.7051H61.7676V90.2344C61.7676 94.5488 65.2656 98.0469 69.5801 98.0469Z" fill="white"/>
<path d="M65.625 19.5312C64.5469 19.5312 63.6719 20.4062 63.6719 21.4844C63.6719 22.5625 64.5469 23.4375 65.625 23.4375C66.7031 23.4375 67.5781 22.5625 67.5781 21.4844C67.5781 20.4062 66.7031 19.5312 65.625 19.5312Z" fill="black"/>
<path d="M90.2344 0H9.76562C4.38086 0 0 4.38086 0 9.76562C0 15.1504 4.38086 19.5312 9.76562 19.5312H20.7031V84.375H10.9375C9.85879 84.375 8.98438 85.2496 8.98438 86.3281V90.2344C8.98438 95.6191 13.3652 100 18.75 100H69.5312C74.916 100 79.2969 95.6191 79.2969 90.2344C79.2969 89.1154 79.2969 22.7033 79.2969 19.5312H90.2344C95.6191 19.5312 100 15.1504 100 9.76562C100 4.38086 95.6191 0 90.2344 0ZM18.75 96.0938C15.5191 96.0938 12.8906 93.4652 12.8906 90.2344V88.2812H59.7656V90.2344C59.7656 92.4309 60.4947 94.4605 61.7232 96.0938H18.75ZM75.3906 90.2344C75.3906 93.4652 72.7621 96.0938 69.5312 96.0938C66.3004 96.0938 63.6719 93.4652 63.6719 90.2344V86.3281C63.6719 85.2496 62.7975 84.375 61.7188 84.375H24.6094V11.7188H75.3906C75.3906 15.4123 75.3906 86.7641 75.3906 90.2344ZM90.2344 15.625H79.2969V11.7188H86.3281C87.4068 11.7188 88.2812 10.8441 88.2812 9.76562C88.2812 8.68711 87.4068 7.8125 86.3281 7.8125H13.6719C12.5932 7.8125 11.7188 8.68711 11.7188 9.76562C11.7188 10.8441 12.5932 11.7188 13.6719 11.7188H20.7031V15.625H9.76562C6.53477 15.625 3.90625 12.9965 3.90625 9.76562C3.90625 6.53477 6.53477 3.90625 9.76562 3.90625H90.2344C93.4652 3.90625 96.0938 6.53477 96.0938 9.76562C96.0938 12.9965 93.4652 15.625 90.2344 15.625Z" fill="black"/>
<path d="M34.375 23.4375H57.8125C58.8912 23.4375 59.7656 22.5629 59.7656 21.4844C59.7656 20.4059 58.8912 19.5312 57.8125 19.5312H34.375C33.2963 19.5312 32.4219 20.4059 32.4219 21.4844C32.4219 22.5629 33.2963 23.4375 34.375 23.4375Z" fill="black"/>
<path d="M65.625 31.25H34.375C33.2963 31.25 32.4219 32.1246 32.4219 33.2031C32.4219 34.2816 33.2963 35.1562 34.375 35.1562H65.625C66.7037 35.1562 67.5781 34.2816 67.5781 33.2031C67.5781 32.1246 66.7037 31.25 65.625 31.25Z" fill="black"/>
<path d="M50.1953 55.7207C49.1183 55.7207 48.2422 54.8445 48.2422 53.7676C48.2422 52.6906 49.1183 51.8145 50.1953 51.8145C50.8871 51.8145 51.6178 52.1676 52.3078 52.8354C53.0832 53.5855 54.3195 53.565 55.0695 52.79C55.8195 52.0147 55.7992 50.7783 55.024 50.0281C54.0328 49.0689 53.041 48.5266 52.1482 48.2303V45.9551C52.1482 44.8766 51.2738 44.002 50.1951 44.002C49.1164 44.002 48.242 44.8766 48.242 45.9551V48.2441C45.9687 49.0504 44.3357 51.2213 44.3357 53.7676C44.3357 56.9984 46.9642 59.627 50.1951 59.627C51.2721 59.627 52.1482 60.5031 52.1482 61.5801C52.1482 62.657 51.2721 63.5332 50.1951 63.5332C49.3605 63.5332 48.4597 63.0084 47.6588 62.0559C46.9646 61.2299 45.7326 61.1236 44.907 61.8176C44.0812 62.5117 43.9748 63.7438 44.6689 64.5693C45.7131 65.8115 46.9408 66.677 48.242 67.1133V69.3926C48.242 70.4711 49.1164 71.3457 50.1951 71.3457C51.2738 71.3457 52.1482 70.4711 52.1482 69.3926V67.1035C54.4215 66.2973 56.0545 64.1264 56.0545 61.5801C56.0547 58.3492 53.4262 55.7207 50.1953 55.7207Z" fill="black"/>
</svg>
