<svg width="98" height="100" viewBox="0 0 98 100" fill="none" xmlns="http://www.w3.org/2000/svg">
<path d="M85.4743 41.0706L76.8798 58.4273L80.3952 65.1533H90.5567L94.0687 58.2779L85.4743 41.0706Z" fill="#FFBF36"/>
<path d="M90.5557 65.1523H80.3952V73.2804H90.5557V65.1523Z" fill="#FFBF36"/>
<path d="M91.0102 73.2815H88.0475C85.2714 73.2815 83.021 75.5319 83.021 78.308L84.9856 98.0466H94.0688L96.0366 78.308C96.0368 75.5321 93.7862 73.2815 91.0102 73.2815Z" fill="#C954AF"/>
<path d="M65.8203 92.6831V10.3788C65.8203 5.79989 69.2513 2.07158 73.7874 1.95361H29.3981C24.745 1.95361 20.973 5.72586 20.973 10.3788V92.6831C20.973 95.6456 23.3743 98.0468 26.3366 98.0468H60.4568C63.4189 98.0468 65.8203 95.6452 65.8203 92.6831Z" fill="#54C991"/>
<path d="M82.6708 27.21V9.41667C82.6708 5.29481 79.3294 1.95361 75.2077 1.95361H73.7876V29.6996H80.1815C81.5563 29.6994 82.6708 28.5848 82.6708 27.21Z" fill="#54C991"/>
<path d="M21.131 26.8852C21.131 20.9623 24.9499 15.9346 30.2585 14.1207C28.8897 13.6532 27.4235 13.3958 25.8964 13.3958C18.4464 13.3958 12.407 19.4352 12.407 26.8852C12.407 34.3351 18.4464 40.3746 25.8964 40.3746C27.4235 40.3746 28.8899 40.1171 30.2585 39.6494C24.9497 37.8357 21.131 32.8082 21.131 26.8852Z" fill="white"/>
<path d="M39.3856 26.885C39.3856 20.9622 35.5666 15.9345 30.2581 14.1206C24.9495 15.9345 21.1306 20.9622 21.1306 26.885C21.1306 32.8078 24.9495 37.8356 30.2581 39.6494C35.5666 37.8356 39.3856 32.808 39.3856 26.885Z" fill="#FFBF36"/>
<path d="M84.6241 26.8181V10.5539C84.6241 4.88924 80.0985 0.156835 74.536 0.00410155C74.4253 0.00117187 74.3147 0.000195312 74.2044 0H10.3871C4.69139 0.000195312 0.0525389 4.61248 0.00898436 10.2984C0.00878905 10.3099 0.00878906 10.3216 0.00878906 10.3334V92.6832C0.00878906 96.7178 3.2912 100 7.32556 100H60.4564C64.491 100 67.7732 96.7176 67.7732 92.6832V31.6524H79.7891C82.4551 31.6524 84.6241 29.4837 84.6241 26.8181ZM63.8673 10.2988C63.8671 10.3103 63.8671 10.3218 63.8671 10.3334V92.6832C63.8671 94.5637 62.3372 96.0938 60.4566 96.0938H7.32556C5.4451 96.0938 3.91502 94.5639 3.91502 92.6832V10.3787C3.91502 6.80974 6.81814 3.90663 10.3869 3.90663H66.1298C64.679 5.71697 63.8849 7.94177 63.8673 10.2988ZM67.7736 10.3787C67.7736 8.61637 68.4695 6.96853 69.7329 5.73923C70.948 4.55701 72.5378 3.91073 74.229 3.90663H74.2456C74.3081 3.90663 74.3677 3.9076 74.4288 3.90916C77.8966 4.00428 80.7176 6.98532 80.7176 10.5541V26.8183C80.7176 27.33 80.3012 27.7464 79.7895 27.7464H67.7736V10.3787Z" fill="black"/>
<path d="M25.8962 42.3278C34.4112 42.3278 41.3389 35.4003 41.3389 26.8851C41.3389 18.3699 34.4114 11.4424 25.8962 11.4424C17.381 11.4424 10.4535 18.3697 10.4535 26.8849C10.4535 35.4001 17.381 42.3278 25.8962 42.3278ZM25.8962 15.3488C32.2573 15.3488 37.4325 20.524 37.4325 26.8851C37.4325 33.2462 32.2573 38.4214 25.8962 38.4214C19.5351 38.4214 14.3599 33.2462 14.3599 26.8851C14.3599 20.524 19.5351 15.3488 25.8962 15.3488Z" fill="black"/>
<path d="M25.8962 33.5065C26.9749 33.5065 27.8493 32.6319 27.8493 31.5534C27.8493 30.4749 26.9749 29.6003 25.8962 29.6003C24.3991 29.6003 23.1813 28.3825 23.1813 26.8855C23.1813 25.3884 24.3993 24.1706 25.8962 24.1706C26.9749 24.1706 27.8493 23.296 27.8493 22.2175C27.8493 21.139 26.9749 20.2644 25.8962 20.2644C22.245 20.2644 19.2749 23.2349 19.2749 26.8857C19.2749 30.5364 22.245 33.5065 25.8962 33.5065Z" fill="black"/>
<path d="M12.4066 53.8315H53.79C54.8687 53.8315 55.7432 52.9569 55.7432 51.8784C55.7432 50.7999 54.8687 49.9253 53.79 49.9253H12.4066C11.3279 49.9253 10.4535 50.7999 10.4535 51.8784C10.4535 52.9569 11.3279 53.8315 12.4066 53.8315Z" fill="black"/>
<path d="M12.4066 62.1133H53.79C54.8687 62.1133 55.7432 61.2387 55.7432 60.1601C55.7432 59.0816 54.8687 58.207 53.79 58.207H12.4066C11.3279 58.207 10.4535 59.0816 10.4535 60.1601C10.4535 61.2387 11.3279 62.1133 12.4066 62.1133Z" fill="black"/>
<path d="M12.4066 70.8569H33.8911C34.9698 70.8569 35.8442 69.9823 35.8442 68.9038C35.8442 67.8253 34.9698 66.9507 33.8911 66.9507H12.4066C11.3279 66.9507 10.4535 67.8253 10.4535 68.9038C10.4535 69.9823 11.3279 70.8569 12.4066 70.8569Z" fill="black"/>
<path d="M92.5113 71.4923V65.6206L95.8097 59.1668C96.092 58.6142 96.0951 57.9603 95.8179 57.4051L87.2236 40.1977C86.893 39.5356 86.2164 39.1174 85.4764 39.1174C85.4754 39.1174 85.474 39.1174 85.4731 39.1174C84.7319 39.1188 84.0551 39.5395 83.7262 40.204L75.1315 57.5605C74.8546 58.1199 74.8616 58.7781 75.1506 59.3314L78.444 65.6355V71.4921C75.3137 72.1804 72.9637 74.9743 72.9637 78.3079C72.9637 78.3725 72.9671 78.437 72.9733 78.5013L74.9381 98.2399C75.0376 99.2387 75.878 99.9996 76.8817 99.9996H94.0705C95.0742 99.9996 95.9144 99.2389 96.014 98.2402L97.9818 78.5016C97.9883 78.4372 97.9914 78.3725 97.9914 78.3079C97.9914 74.9745 95.6412 72.1806 92.5113 71.4923ZM82.3498 67.1064H88.6047V71.3282H82.3498V67.1064ZM83.5225 49.4166V57.5761C83.5225 58.6547 84.3969 59.5293 85.4756 59.5293C86.5543 59.5293 87.4287 58.6547 87.4287 57.5761V49.3522L91.8818 58.2677L89.3611 63.2001H81.5784L79.0727 58.4035L83.5225 49.4166ZM92.3021 96.0934H78.65L76.8711 78.2227C76.9165 76.5673 78.2772 75.2347 79.9434 75.2347H80.3971H90.5584H91.0119C92.6779 75.2347 94.0389 76.5673 94.0842 78.2226L92.3021 96.0934Z" fill="black"/>
<path d="M31.5961 85.6159C31.169 85.8499 30.6358 85.7917 30.2694 85.4708C28.8788 84.2518 26.935 83.8868 25.1966 84.5177L21.8942 85.7169C21.6692 85.7708 21.4388 85.6911 21.2571 85.4954L20.8237 85.0278C19.6042 83.7126 17.8022 83.2202 16.122 83.7434L12.2654 84.943C11.2355 85.2636 10.6601 86.3581 10.9804 87.3881C11.3007 88.4182 12.3948 88.9932 13.4255 88.6731L17.2823 87.4735C17.5196 87.3991 17.7667 87.4762 17.9593 87.6839L18.3927 88.1514C19.6007 89.454 21.3876 89.951 23.0563 89.4475C23.0909 89.437 23.1253 89.4258 23.1591 89.4133L26.5296 88.1893C26.929 88.0446 27.3749 88.1282 27.6942 88.4083C28.6379 89.2352 29.8354 89.6624 31.0416 89.6624C31.8756 89.6624 32.7139 89.4581 33.4746 89.0407C34.4203 88.5219 34.7664 87.3348 34.2477 86.3889C33.7289 85.443 32.5418 85.0975 31.5961 85.6159Z" fill="black"/>
<path d="M38.103 88.9775C39.1816 88.9775 40.0561 88.1031 40.0561 87.0244C40.0561 85.9457 39.1816 85.0713 38.103 85.0713C37.0243 85.0713 36.1498 85.9457 36.1498 87.0244C36.1498 88.1031 37.0243 88.9775 38.103 88.9775Z" fill="black"/>
</svg>
